<?xml version="1.0" standalone="no"?>
<!DOCTYPE svg PUBLIC "-//W3C//DTD SVG 20010904//EN"
 "http://www.w3.org/TR/2001/REC-SVG-20010904/DTD/svg10.dtd">
<svg version="1.0" xmlns="http://www.w3.org/2000/svg"
 width="612.000000pt" height="408.000000pt" viewBox="0 0 612.000000 408.000000"
 preserveAspectRatio="xMidYMid meet">

<g transform="translate(0.000000,408.000000) scale(0.100000,-0.100000)"
fill="#000000" stroke="none">
<path d="M620 3130 c0 -76 -94 -170 -170 -170 -34 0 -26 -43 10 -57 20 -7 35
-24 45 -47 14 -32 14 -40 0 -71 -9 -24 -24 -39 -45 -46 -26 -10 -30 -16 -30
-49 0 -32 4 -39 26 -44 14 -4 34 -22 46 -41 l20 -35 624 0 c617 0 624 0 624
-20 0 -11 5 -20 10 -20 6 0 10 9 10 20 0 20 7 20 1645 20 1615 0 1644 0 1655
-19 6 -13 10 -213 10 -580 l0 -561 300 0 c293 0 300 0 300 20 0 11 -7 20 -15
20 -29 0 -65 47 -65 83 0 36 39 87 66 87 10 0 14 13 14 40 0 22 -4 40 -9 40
-5 0 -23 12 -40 26 -44 37 -44 91 0 128 17 14 35 26 40 26 5 0 9 18 9 39 0 31
-4 41 -20 46 -76 24 -79 137 -4 165 20 8 24 16 24 50 0 29 -4 40 -15 40 -30 0
-65 47 -65 85 0 38 35 85 65 85 11 0 15 11 15 45 0 38 -3 45 -19 45 -33 0 -64
49 -58 93 5 38 37 77 64 77 8 0 13 13 13 38 0 31 -5 40 -30 54 -39 22 -54 57
-46 103 6 28 15 39 42 52 23 12 34 23 34 39 0 18 -8 23 -42 28 -57 9 -122 75
-140 139 l-12 47 -1852 0 -1852 0 -15 -22 -16 -23 -7 23 -6 22 -569 0 c-565 0
-569 0 -569 -20z m261 -100 c20 -11 27 -40 9 -40 -6 0 -19 5 -29 12 -32 20
-53 3 -49 -39 3 -43 33 -58 55 -27 11 14 15 15 26 5 19 -19 -28 -54 -62 -46
-38 9 -53 28 -54 70 -2 59 52 92 104 65z m79 -61 c0 -62 -2 -70 -17 -67 -10 2
-18 11 -17 21 0 9 1 40 2 67 2 37 6 50 17 50 12 0 15 -15 15 -71z m82 28 l28
-42 0 43 c0 31 4 42 15 42 12 0 15 -14 15 -70 0 -60 -2 -70 -17 -70 -10 0 -30
19 -45 43 l-28 42 0 -42 c0 -32 -4 -43 -15 -43 -12 0 -15 14 -15 63 0 92 18
102 62 34z m198 28 c0 -11 -11 -15 -40 -15 -29 0 -40 -4 -40 -15 0 -11 11 -15
40 -15 22 0 40 -4 40 -10 0 -5 -18 -10 -40 -10 -33 0 -40 -3 -40 -20 0 -17 7
-20 39 -20 22 0 43 -4 46 -10 4 -6 -17 -10 -54 -10 l-61 0 0 70 0 70 55 0 c42
0 55 -3 55 -15z m84 -30 c12 -43 19 -40 31 13 5 25 12 32 31 32 23 0 24 -3 24
-70 0 -56 -3 -70 -15 -70 -11 0 -15 12 -16 43 l-1 42 -11 -42 c-13 -54 -42
-59 -56 -10 l-9 32 -1 -32 c-1 -22 -6 -33 -15 -33 -18 0 -22 18 -18 87 4 48 6
54 25 51 14 -2 24 -15 31 -43z m217 -27 c26 -63 26 -68 9 -68 -10 0 -20 7 -24
15 -3 8 -17 15 -31 15 -14 0 -28 -7 -31 -15 -4 -8 -14 -15 -25 -15 -18 0 -17
2 2 48 12 26 25 57 30 70 15 40 40 22 70 -50z m769 -21 c14 -44 41 -61 86 -54
49 8 51 -8 3 -40 -43 -29 -45 -38 -22 -123 l7 -25 -30 19 c-16 11 -38 25 -50
33 -18 11 -25 9 -63 -18 -23 -17 -44 -29 -46 -27 -3 3 1 26 9 53 l15 48 -42
39 c-23 21 -37 39 -32 39 6 1 15 2 20 4 6 1 27 3 47 3 35 2 37 5 53 53 19 55
26 54 45 -4z m600 3 c15 -47 31 -58 77 -55 53 3 57 -10 12 -40 -44 -31 -43
-28 -23 -118 l7 -28 -48 30 c-26 17 -53 27 -59 24 -6 -4 -26 -18 -43 -31 -31
-23 -33 -23 -33 -5 0 11 5 35 12 53 11 33 10 35 -33 72 -24 21 -42 38 -39 39
3 1 23 2 45 4 22 1 45 3 52 4 7 0 20 23 30 50 9 27 20 48 23 46 4 -2 13 -22
20 -45z m646 -52 c16 -4 39 -6 51 -4 37 7 35 -7 -8 -44 l-42 -36 16 -47 c19
-55 9 -60 -42 -22 -36 26 -45 24 -110 -22 l-24 -18 6 30 c21 93 22 89 -22 119
-22 16 -38 32 -35 37 3 5 10 7 15 3 18 -11 90 7 96 24 3 10 13 33 21 52 l14
35 17 -49 c14 -40 23 -51 47 -58z m573 22 c5 -10 27 -16 60 -18 28 -2 51 -6
51 -10 0 -4 -18 -23 -41 -42 l-40 -35 16 -49 c9 -26 15 -50 13 -52 -2 -2 -21
8 -41 21 -20 14 -43 25 -52 25 -9 0 -32 -11 -52 -25 -20 -13 -39 -23 -41 -21
-2 2 1 21 7 43 17 60 14 71 -29 99 -44 29 -40 42 12 38 45 -3 64 10 79 53 18
58 22 60 36 23 7 -19 17 -42 22 -50z m591 28 c14 -46 15 -46 75 -52 26 -3 49
-7 51 -9 3 -2 -14 -17 -37 -33 -43 -30 -45 -40 -22 -124 l7 -25 -30 19 c-77
50 -67 49 -113 15 -24 -17 -45 -28 -48 -25 -3 3 2 27 11 53 l17 48 -41 35
c-22 19 -40 38 -40 43 0 4 24 7 54 7 l54 0 17 51 c19 55 26 54 45 -3z m-3820
-147 c0 -5 -10 -11 -22 -13 -21 -3 -23 -8 -22 -55 1 -45 -2 -53 -17 -53 -16 0
-19 8 -19 55 0 52 -1 55 -25 55 -14 0 -25 5 -25 10 0 6 28 10 65 10 36 0 65
-4 65 -9z m55 -56 c0 -55 -3 -65 -17 -65 -15 0 -18 10 -18 65 0 55 3 65 18 65
14 0 17 -10 17 -65z m155 45 c9 -17 8 -20 -9 -20 -11 0 -23 5 -26 10 -9 15
-41 12 -55 -5 -7 -8 -10 -25 -6 -39 8 -31 45 -45 61 -22 8 10 19 14 29 10 16
-6 16 -8 0 -25 -21 -24 -81 -25 -106 -2 -22 20 -23 70 -1 95 24 26 99 25 113
-2z m70 -7 l0 -27 28 27 c15 15 39 27 53 27 l24 -1 -28 -24 -28 -25 31 -40 32
-40 -26 0 c-17 0 -30 9 -42 30 -14 22 -21 27 -31 18 -7 -6 -13 -19 -13 -29 0
-12 -7 -19 -20 -19 -18 0 -20 7 -20 65 0 58 2 65 20 65 15 0 20 -7 20 -27z
m250 17 c0 -5 -20 -10 -45 -10 -33 0 -45 -4 -45 -15 0 -11 11 -15 40 -15 22 0
40 -4 40 -10 0 -5 -18 -10 -40 -10 -33 0 -40 -3 -40 -20 0 -17 7 -20 45 -20
25 0 45 -4 45 -10 0 -6 -28 -10 -63 -10 l-64 0 -2 65 -2 65 65 0 c37 0 66 -4
66 -10z m140 0 c0 -5 -11 -10 -25 -10 -24 0 -25 -3 -25 -55 0 -42 -3 -55 -15
-55 -12 0 -15 13 -15 55 0 52 -1 55 -25 55 -14 0 -25 5 -25 10 0 6 28 10 65
10 37 0 65 -4 65 -10z m3685 -360 c-6 -26 -4 -30 15 -30 17 0 21 5 18 28 -3
25 -1 27 27 23 41 -4 45 -8 45 -42 0 -38 -27 -40 -32 -1 l-3 27 -15 -30 c-28
-55 -101 -24 -79 33 13 34 32 28 24 -8z m89 -86 c18 -17 19 -24 10 -48 -11
-28 -35 -19 -28 9 4 15 2 25 -5 25 -6 0 -11 -9 -11 -20 0 -10 -8 -23 -17 -29
-10 -5 -16 -11 -13 -14 3 -2 22 -16 43 -31 20 -16 37 -32 37 -37 0 -5 -18 -9
-39 -9 -22 0 -43 -4 -46 -10 -8 -13 -45 10 -45 28 0 7 4 11 9 8 5 -3 11 9 14
27 3 21 0 35 -9 40 -17 10 -18 64 -1 70 27 12 86 6 101 -9z m8 -201 c8 -10 8
-20 0 -37 -8 -19 -18 -23 -61 -24 -41 -1 -53 3 -61 19 -20 36 3 58 60 57 29
-1 55 -7 62 -15z m-94 -110 c-2 -20 2 -28 12 -28 9 0 15 10 15 25 0 17 6 25
18 24 58 -3 58 -3 55 -36 -4 -39 -28 -51 -28 -14 0 32 -17 35 -22 4 -2 -19 -9
-23 -38 -23 -29 0 -36 4 -38 23 -4 29 4 52 18 52 6 0 9 -12 8 -27z m26 -102
c29 -32 49 -27 41 9 -5 24 -4 29 9 24 36 -14 25 -84 -13 -84 -10 0 -26 9 -36
20 -10 11 -22 20 -27 20 -4 0 -8 -9 -8 -20 0 -11 -4 -20 -10 -20 -5 0 -10 20
-10 45 0 41 2 45 18 36 9 -5 26 -19 36 -30z m57 -93 c10 -13 18 -26 19 -30 0
-5 -29 -8 -65 -8 -51 0 -65 3 -65 15 0 11 11 15 41 15 32 0 40 3 35 15 -8 23
13 18 35 -7z m-25 -95 c24 -16 42 -32 41 -38 -4 -12 -84 -25 -109 -18 -19 5
-25 33 -8 33 6 0 10 11 10 25 0 32 13 31 66 -2z m-55 -96 c-18 -18 -13 -37 10
-37 17 0 20 5 16 26 -4 23 -2 25 32 22 32 -3 36 -6 38 -35 2 -24 -1 -33 -12
-33 -8 0 -15 9 -15 20 0 11 -4 20 -10 20 -5 0 -10 -9 -10 -19 0 -22 -30 -35
-60 -26 -15 5 -20 15 -20 40 0 18 6 35 13 38 18 7 30 -4 18 -16z m97 -117 c4
-42 -11 -59 -35 -38 -10 9 -33 20 -52 25 -19 5 -36 14 -39 21 -5 17 33 15 68
-3 30 -15 30 -15 30 11 0 38 24 25 28 -16z"/>
<path d="M1486 2975 c-9 -23 -8 -25 9 -25 17 0 19 9 6 28 -7 11 -10 10 -15 -3z"/>
<path d="M5250 2325 c0 -8 9 -15 20 -15 11 0 20 7 20 15 0 8 -9 15 -20 15 -11
0 -20 -7 -20 -15z"/>
<path d="M5280 2230 c0 -5 5 -10 10 -10 6 0 10 5 10 10 0 6 -4 10 -10 10 -5 0
-10 -4 -10 -10z"/>
<path d="M5255 2140 c-4 -6 -3 -16 3 -22 6 -6 12 -6 17 2 4 6 3 16 -3 22 -6 6
-12 6 -17 -2z"/>
<path d="M5310 2130 c0 -5 5 -10 10 -10 6 0 10 5 10 10 0 6 -4 10 -10 10 -5 0
-10 -4 -10 -10z"/>
<path d="M5280 1740 c0 -6 7 -10 15 -10 8 0 15 2 15 4 0 2 -7 6 -15 10 -8 3
-15 1 -15 -4z"/>
<path d="M686 2428 c-17 -53 -15 -60 10 -55 28 5 44 -17 26 -35 -8 -8 -15 -8
-25 0 -18 15 -30 3 -16 -15 17 -20 57 -16 69 7 15 29 4 57 -28 69 l-27 9 28 1
c17 1 27 6 27 16 0 19 -59 21 -64 3z"/>
<path d="M786 2424 c-20 -19 -21 -88 -2 -104 8 -6 25 -10 38 -8 19 2 23 9 23
38 0 29 -4 36 -22 38 -23 3 -29 13 -16 25 3 4 12 2 19 -4 8 -7 14 -7 19 1 18
29 -32 41 -59 14z m42 -71 c-5 -25 -28 -28 -28 -4 0 12 6 21 16 21 9 0 14 -7
12 -17z"/>
<path d="M888 2396 c-34 -53 -34 -56 -3 -56 14 0 28 -7 31 -15 8 -19 24 -20
24 -1 0 8 6 17 13 20 10 5 10 7 0 12 -7 3 -13 23 -13 45 0 52 -18 50 -52 -5z
m26 -21 c-4 -8 -11 -15 -16 -15 -6 0 -5 6 2 15 7 8 14 15 16 15 2 0 1 -7 -2
-15z"/>
<path d="M983 2428 c-6 -7 -10 -35 -9 -63 1 -44 4 -50 24 -53 36 -5 51 14 49
61 -2 23 -6 48 -11 55 -9 16 -41 16 -53 0z m37 -23 c0 -8 -4 -15 -9 -15 -13 0
-22 16 -14 24 11 11 23 6 23 -9z m0 -55 c0 -11 -4 -20 -9 -20 -14 0 -23 18
-16 30 10 17 25 11 25 -10z"/>
<path d="M1076 2418 c-10 -40 -7 -51 14 -45 24 6 42 -13 30 -33 -7 -11 -11
-12 -24 0 -19 15 -31 8 -23 -15 7 -18 48 -20 65 -3 21 21 14 57 -14 71 -26 11
-26 12 -5 17 33 8 30 25 -5 28 -26 3 -33 -1 -38 -20z"/>
<path d="M1174 2425 c-8 -21 3 -32 18 -17 17 17 28 15 28 -6 0 -9 -13 -30 -30
-45 -16 -16 -30 -33 -30 -38 0 -5 21 -9 46 -9 32 0 44 4 41 13 -2 6 -11 11
-21 9 -21 -4 -20 3 6 39 17 23 20 34 12 47 -15 23 -62 28 -70 7z"/>
<path d="M1288 2419 c-22 -23 -23 -33 -3 -25 12 4 15 -4 15 -39 0 -33 4 -45
15 -45 12 0 15 14 15 65 0 70 -10 80 -42 44z"/>
<path d="M1386 2400 c-36 -54 -34 -67 12 -61 6 1 12 -5 12 -14 0 -21 13 -19
29 6 10 17 10 23 1 29 -6 4 -11 18 -10 31 5 62 -7 64 -44 9z m20 -37 c-10 -10
-19 5 -10 18 6 11 8 11 12 0 2 -7 1 -15 -2 -18z"/>
<path d="M1477 2433 c-4 -3 -7 -19 -7 -35 0 -25 4 -29 23 -26 17 2 23 -3 25
-20 3 -22 1 -23 -29 -17 -30 7 -32 6 -20 -9 19 -22 58 -20 71 4 14 27 5 54
-23 68 l-22 11 23 0 c34 1 28 31 -6 31 -16 0 -32 -3 -35 -7z"/>
<path d="M1560 2425 c0 -9 9 -15 25 -15 25 0 25 -1 10 -30 -16 -31 -20 -70 -7
-70 6 0 52 108 52 124 0 3 -18 6 -40 6 -29 0 -40 -4 -40 -15z"/>
<path d="M1770 2410 c0 -16 5 -30 10 -30 6 0 10 14 10 30 0 17 -4 30 -10 30
-5 0 -10 -13 -10 -30z"/>
<path d="M2123 2314 c-77 -39 -92 -136 -32 -200 l20 -21 -31 -6 -31 -7 3 -132
3 -133 78 -3 c81 -3 89 -9 63 -47 -34 -50 -166 -307 -161 -314 2 -5 14 -11 25
-14 17 -4 25 4 46 46 65 129 177 327 185 327 5 0 10 -84 11 -187 l3 -188 28
-3 27 -3 0 190 c0 113 4 191 9 191 10 0 70 -105 167 -287 27 -51 52 -93 55
-93 3 0 14 6 24 14 20 14 28 -4 -127 282 -21 39 -38 74 -38 77 0 3 30 7 68 9
61 3 67 5 70 26 4 24 17 29 25 9 6 -15 115 -43 125 -32 4 4 8 65 10 136 4 145
10 136 -81 118 -36 -8 -57 -17 -57 -25 0 -8 -4 -14 -10 -14 -5 0 -10 11 -10
24 0 26 -16 36 -62 36 l-31 0 26 20 c30 24 49 79 40 120 -3 16 -21 43 -40 62
-29 28 -41 33 -84 33 -46 0 -54 -4 -85 -37 -27 -30 -34 -46 -34 -79 0 -46 13
-76 44 -101 20 -17 19 -18 -53 -18 -61 0 -72 2 -59 13 30 24 48 62 48 103 0
87 -99 148 -177 108z"/>
<path d="M1770 2265 c0 -19 5 -35 10 -35 6 0 10 16 10 35 0 19 -4 35 -10 35
-5 0 -10 -16 -10 -35z"/>
<path d="M3062 2280 c-55 -34 -74 -74 -70 -155 5 -109 52 -155 158 -155 47 0
56 4 91 39 46 46 48 58 12 72 -22 8 -30 7 -40 -7 -7 -10 -13 -21 -13 -24 0
-10 -48 -30 -71 -30 -81 0 -103 181 -26 218 34 17 84 7 100 -19 11 -18 56 -26
70 -13 12 12 -23 64 -53 79 -42 21 -118 19 -158 -5z"/>
<path d="M3347 2293 c-4 -3 -7 -78 -7 -165 l0 -158 35 0 35 0 0 165 0 165 -28
0 c-16 0 -32 -3 -35 -7z"/>
<path d="M3480 2135 l0 -165 30 0 30 0 0 107 0 108 71 -108 c68 -103 73 -108
103 -105 l31 3 0 160 0 160 -30 0 c-34 0 -31 8 -34 -130 l-1 -80 -70 108 c-63
97 -72 107 -100 107 l-30 0 0 -165z"/>
<path d="M3827 2293 c-4 -3 -7 -78 -7 -165 l0 -158 130 0 130 0 0 31 0 30 -92
-2 -93 -2 -3 47 -3 46 85 0 c85 0 86 0 86 25 0 25 -1 25 -85 25 l-85 0 0 35 0
35 90 0 90 0 0 30 0 30 -118 0 c-65 0 -122 -3 -125 -7z"/>
<path d="M4140 2136 l0 -166 30 0 29 0 3 123 c3 137 5 135 49 -35 21 -84 23
-88 50 -88 15 0 31 5 34 11 4 5 20 58 35 116 16 58 32 108 35 111 3 3 5 -49 5
-116 l0 -122 30 0 30 0 0 166 0 165 -51 -3 -52 -3 -29 -105 c-16 -57 -31 -106
-32 -108 -2 -1 -17 46 -33 105 l-30 108 -52 3 -51 3 0 -165z"/>
<path d="M4631 2278 c-5 -13 -32 -79 -61 -148 -70 -169 -68 -160 -31 -160 26
0 34 6 51 40 l20 40 65 0 65 0 20 -40 c17 -33 26 -40 50 -40 17 0 30 4 30 10
0 5 -30 79 -66 165 l-66 155 -34 0 c-26 0 -37 -5 -43 -22z m89 -175 c0 -2 -20
-3 -45 -3 -25 0 -45 2 -45 5 0 2 10 30 21 61 l22 57 23 -58 c13 -32 24 -60 24
-62z"/>
<path d="M634 1995 c0 -121 2 -169 3 -107 2 62 2 161 0 220 -1 59 -3 8 -3
-113z"/>
<path d="M654 1995 c0 -121 2 -169 3 -107 2 62 2 161 0 220 -1 59 -3 8 -3
-113z"/>
<path d="M670 2026 c0 -154 2 -185 15 -190 13 -5 15 20 15 184 0 162 -2 190
-15 190 -13 0 -15 -27 -15 -184z"/>
<path d="M720 2026 c0 -102 4 -187 8 -190 5 -3 18 -2 30 1 22 5 22 9 22 189
l0 184 -30 0 -30 0 0 -184z"/>
<path d="M794 2025 c0 -104 2 -146 3 -92 2 54 2 139 0 190 -1 51 -3 7 -3 -98z"/>
<path d="M830 2025 c0 -117 4 -185 10 -185 6 0 10 68 10 185 0 117 -4 185 -10
185 -6 0 -10 -68 -10 -185z"/>
<path d="M910 2026 c0 -180 1 -186 20 -186 20 0 20 5 18 182 -3 165 -5 183
-20 186 -17 3 -18 -11 -18 -182z"/>
<path d="M974 2025 c0 -104 2 -146 3 -92 2 54 2 139 0 190 -1 51 -3 7 -3 -98z"/>
<path d="M994 2025 c0 -104 2 -146 3 -92 2 54 2 139 0 190 -1 51 -3 7 -3 -98z"/>
<path d="M1010 2026 c0 -150 3 -185 14 -189 8 -3 16 -18 19 -34 2 -15 5 70 6
190 1 211 0 217 -19 217 -19 0 -20 -7 -20 -184z"/>
<path d="M1064 1995 c0 -121 2 -169 3 -107 2 62 2 161 0 220 -1 59 -3 8 -3
-113z"/>
<path d="M1080 2025 c0 -117 4 -185 10 -185 6 0 10 68 10 185 0 117 -4 185
-10 185 -6 0 -10 -68 -10 -185z"/>
<path d="M1114 2025 c0 -104 2 -146 3 -92 2 54 2 139 0 190 -1 51 -3 7 -3 -98z"/>
<path d="M1162 2023 c3 -168 5 -186 21 -189 16 -2 17 12 17 187 0 183 -1 189
-20 189 -20 0 -20 -5 -18 -187z"/>
<path d="M1229 2198 c-2 -7 -3 -91 -1 -185 3 -163 4 -173 23 -173 18 0 19 9
19 185 0 175 -1 185 -19 185 -10 0 -20 -6 -22 -12z"/>
<path d="M1294 2025 c0 -104 2 -146 3 -92 2 54 2 139 0 190 -1 51 -3 7 -3 -98z"/>
<path d="M1314 2025 c0 -104 2 -146 3 -92 2 54 2 139 0 190 -1 51 -3 7 -3 -98z"/>
<path d="M1330 2025 c0 -178 1 -185 20 -185 19 0 20 7 20 185 0 178 -1 185
-20 185 -19 0 -20 -7 -20 -185z"/>
<path d="M1384 2025 c0 -104 2 -146 3 -92 2 54 2 139 0 190 -1 51 -3 7 -3 -98z"/>
<path d="M1420 2025 c0 -116 4 -185 10 -186 59 -7 55 -22 58 184 l2 187 -35 0
-35 0 0 -185z"/>
<path d="M1504 2025 c0 -104 2 -146 3 -92 2 54 2 139 0 190 -1 51 -3 7 -3 -98z"/>
<path d="M1540 2025 l0 -185 25 0 25 0 0 148 c0 182 -6 222 -31 222 -18 0 -19
-11 -19 -185z"/>
<path d="M1600 2025 c0 -188 0 -190 37 -186 6 1 14 -13 16 -31 2 -18 5 65 5
185 l2 217 -30 0 -30 0 0 -185z"/>
<path d="M1674 1995 c0 -121 2 -169 3 -107 2 62 2 161 0 220 -1 59 -3 8 -3
-113z"/>
<path d="M1134 2020 c0 -102 2 -143 3 -92 2 50 2 134 0 185 -1 50 -3 9 -3 -93z"/>
<path d="M1770 2115 c0 -19 5 -35 10 -35 6 0 10 16 10 35 0 19 -4 35 -10 35
-5 0 -10 -16 -10 -35z"/>
<path d="M1770 1965 c0 -19 5 -35 10 -35 6 0 10 16 10 35 0 19 -4 35 -10 35
-5 0 -10 -16 -10 -35z"/>
<path d="M1770 1820 c0 -16 5 -30 10 -30 6 0 10 14 10 30 0 17 -4 30 -10 30
-5 0 -10 -13 -10 -30z"/>
<path d="M3550 1798 c-127 -64 -111 -250 25 -288 80 -22 154 -1 192 56 14 22
14 27 2 35 -25 16 -47 10 -77 -21 -41 -40 -83 -40 -123 -1 -24 25 -29 38 -29
79 0 59 25 96 69 105 35 7 87 -8 95 -29 6 -15 43 -19 65 -5 38 24 -61 91 -135
91 -22 0 -60 -10 -84 -22z"/>
<path d="M2982 1788 c3 -20 10 -23 61 -26 l57 -3 0 -124 0 -125 35 0 35 0 0
125 0 125 55 0 c52 0 55 1 55 25 l0 25 -151 0 c-150 0 -150 0 -147 -22z"/>
<path d="M3330 1660 l0 -150 35 0 35 0 0 150 0 150 -35 0 -35 0 0 -150z"/>
<path d="M3855 1758 c-3 -29 -5 -96 -3 -148 l3 -95 38 -3 37 -3 0 45 c0 37 5
48 31 70 l31 27 50 -71 c49 -69 50 -70 94 -70 l45 0 -19 28 c-11 15 -43 56
-71 91 l-50 65 37 30 c20 17 50 43 67 58 l30 27 -48 1 c-46 0 -53 -4 -120 -65
l-72 -66 -3 66 -3 65 -34 0 c-33 0 -34 -1 -40 -52z"/>
<path d="M4230 1660 l0 -150 140 0 140 0 0 26 0 25 -102 -2 -103 -2 1 39 1 39
91 3 c90 3 92 3 92 27 0 24 -2 24 -92 27 l-92 3 -3 33 -4 32 105 0 106 0 0 25
0 25 -140 0 -140 0 0 -150z"/>
<path d="M4550 1785 c0 -24 3 -25 60 -25 l60 0 0 -125 0 -125 35 0 35 0 0 125
0 125 55 0 c52 0 55 1 55 25 l0 25 -150 0 -150 0 0 -25z"/>
<path d="M1770 1670 c0 -16 5 -30 10 -30 6 0 10 14 10 30 0 17 -4 30 -10 30
-5 0 -10 -13 -10 -30z"/>
<path d="M990 1636 c0 -8 -10 -16 -22 -18 -17 -2 -24 -11 -26 -30 -2 -16 1
-29 7 -29 69 -8 71 -7 71 44 0 35 -4 47 -15 47 -8 0 -15 -6 -15 -14z m0 -52
c0 -9 -5 -14 -12 -12 -18 6 -21 28 -4 28 9 0 16 -7 16 -16z"/>
<path d="M1127 1624 c-9 -9 3 -57 17 -66 17 -11 28 3 15 19 -10 12 -10 16 2
24 12 8 12 10 -1 19 -18 12 -24 12 -33 4z"/>
<path d="M1040 1610 c0 -5 8 -7 18 -3 11 4 9 0 -7 -13 -19 -16 -21 -22 -10
-31 18 -14 69 -5 69 12 0 31 -13 45 -41 45 -16 0 -29 -4 -29 -10z"/>
<path d="M1192 1608 c-7 -7 -12 -18 -12 -25 0 -18 38 -36 58 -27 14 6 13 8 -8
14 l-25 8 28 1 c15 1 27 5 27 9 0 14 -23 32 -40 32 -9 0 -21 -5 -28 -12z"/>
<path d="M1270 1610 c0 -5 7 -10 15 -10 8 0 15 5 15 10 0 6 -7 10 -15 10 -8 0
-15 -4 -15 -10z"/>
<path d="M1272 1571 c2 -7 7 -12 11 -12 12 1 9 15 -3 20 -7 2 -11 -2 -8 -8z"/>
<path d="M1770 1526 c0 -20 5 -36 10 -36 6 0 10 13 10 29 0 17 -4 33 -10 36
-6 4 -10 -8 -10 -29z"/>
<path d="M920 1446 c-23 -54 -23 -56 -11 -56 11 0 45 89 37 97 -3 3 -15 -15
-26 -41z"/>
<path d="M1156 1443 c-19 -54 -18 -53 -8 -53 5 0 14 17 21 38 7 20 15 43 17
50 3 6 1 12 -4 12 -6 0 -17 -21 -26 -47z"/>
<path d="M726 1465 c-18 -49 14 -87 55 -65 15 9 19 19 17 43 -3 28 -7 32 -34
35 -22 2 -33 -2 -38 -13z m44 -30 c0 -14 -4 -25 -10 -25 -5 0 -10 11 -10 25 0
14 5 25 10 25 6 0 10 -11 10 -25z"/>
<path d="M825 1470 c-3 -5 -1 -10 4 -10 6 0 11 -13 11 -30 0 -20 5 -30 15 -30
11 0 15 11 15 40 0 33 -3 40 -19 40 -11 0 -23 -4 -26 -10z"/>
<path d="M967 1473 c-4 -3 -7 -19 -7 -34 0 -31 28 -53 54 -43 22 8 31 51 16
69 -13 15 -51 20 -63 8z m43 -39 c0 -24 -14 -32 -25 -14 -9 14 4 52 16 45 5
-4 9 -17 9 -31z"/>
<path d="M1055 1469 c4 -6 13 -8 21 -5 27 10 26 -17 -2 -40 l-29 -23 45 1 c25
0 37 2 28 5 -19 5 -25 23 -8 23 6 0 10 11 10 25 0 22 -4 25 -36 25 -22 0 -33
-4 -29 -11z"/>
<path d="M1200 1469 c0 -6 7 -9 15 -6 25 10 29 -15 5 -35 -12 -10 -21 -20 -19
-22 9 -9 69 -13 69 -5 0 5 -7 9 -17 9 -15 0 -14 2 2 20 24 27 13 50 -25 50
-16 0 -30 -5 -30 -11z"/>
<path d="M1297 1473 c-4 -3 -7 -19 -7 -35 0 -20 6 -31 23 -37 40 -16 75 37 45
67 -13 13 -50 16 -61 5z m43 -33 c0 -10 -5 -22 -10 -25 -13 -8 -24 20 -16 41
8 20 26 9 26 -16z"/>
<path d="M1390 1470 c0 -5 5 -10 10 -10 6 0 10 -13 10 -30 0 -20 5 -30 15 -30
11 0 15 11 15 40 0 36 -2 40 -25 40 -14 0 -25 -4 -25 -10z"/>
<path d="M1479 1478 c-1 -2 -3 -19 -4 -39 -3 -31 0 -38 17 -42 28 -8 61 11 54
30 -3 8 -6 23 -6 34 0 14 -7 19 -30 19 -16 0 -30 -1 -31 -2z m41 -18 c0 -5 -4
-10 -10 -10 -5 0 -10 5 -10 10 0 6 5 10 10 10 6 0 10 -4 10 -10z m0 -40 c0 -5
-4 -10 -10 -10 -5 0 -10 5 -10 10 0 6 5 10 10 10 6 0 10 -4 10 -10z"/>
<path d="M1770 1375 c0 -19 5 -35 10 -35 6 0 10 16 10 35 0 19 -4 35 -10 35
-5 0 -10 -16 -10 -35z"/>
<path d="M820 1280 c0 -50 16 -70 22 -28 5 32 28 35 28 3 0 -31 25 -30 26 1 0
26 -15 44 -37 44 -11 0 -19 7 -19 15 0 8 -4 15 -10 15 -5 0 -10 -22 -10 -50z"/>
<path d="M1400 1310 c0 -5 11 -10 25 -10 l24 0 -20 -35 c-16 -27 -18 -35 -7
-35 12 0 58 66 58 84 0 3 -18 6 -40 6 -22 0 -40 -4 -40 -10z"/>
<path d="M756 1302 c-9 -15 10 -67 26 -70 11 -2 14 6 13 35 0 26 -6 39 -17 41
-9 2 -19 -1 -22 -6z"/>
<path d="M1086 1302 c-9 -15 10 -67 26 -70 11 -2 14 6 13 35 0 26 -6 39 -17
41 -9 2 -19 -1 -22 -6z"/>
<path d="M919 1284 c-18 -21 0 -48 35 -52 32 -4 35 15 4 21 -20 4 -19 4 5 6
29 1 34 10 15 29 -17 17 -43 15 -59 -4z"/>
<path d="M1013 1286 c3 -8 1 -16 -5 -18 -24 -8 1 -37 31 -36 27 1 31 5 31 28
0 27 -15 40 -47 40 -9 0 -13 -6 -10 -14z"/>
<path d="M1149 1284 c-18 -21 0 -48 35 -52 32 -4 35 15 4 21 -20 4 -19 4 5 6
29 1 34 10 15 29 -17 17 -43 15 -59 -4z"/>
<path d="M1232 1267 c4 -38 28 -49 28 -13 0 14 5 26 10 26 6 0 10 4 10 9 0 5
-11 9 -26 9 -22 0 -25 -4 -22 -31z"/>
<path d="M1295 1291 c-6 -11 9 -23 19 -14 9 9 7 23 -3 23 -6 0 -12 -4 -16 -9z"/>
<path d="M1297 1254 c-8 -8 1 -24 14 -24 5 0 9 7 9 15 0 15 -12 20 -23 9z"/>
<path d="M1770 1225 c0 -19 5 -35 10 -35 6 0 10 16 10 35 0 19 -4 35 -10 35
-5 0 -10 -16 -10 -35z"/>
<path d="M2049 1173 c-1 -5 -1 -11 -1 -14 1 -4 -12 -9 -29 -13 -26 -5 -30 -10
-27 -33 3 -25 7 -28 41 -30 l37 -1 0 49 c0 27 -4 49 -10 49 -5 0 -11 -3 -11
-7z m-9 -58 c0 -8 -4 -15 -9 -15 -13 0 -22 16 -14 24 11 11 23 6 23 -9z"/>
<path d="M1566 1123 c-21 -62 -12 -68 14 -9 23 54 23 56 11 56 -5 0 -16 -21
-25 -47z"/>
<path d="M2419 1149 c-13 -26 2 -69 25 -69 33 0 46 13 46 45 0 47 -49 64 -71
24z m49 -27 c2 -15 -2 -22 -12 -22 -11 0 -16 9 -16 26 0 31 23 28 28 -4z"/>
<path d="M2520 1160 c-12 -8 -12 -10 3 -16 11 -4 17 -17 17 -35 0 -16 5 -29
10 -29 6 0 10 20 10 45 0 46 -10 54 -40 35z"/>
<path d="M2611 1129 c-16 -53 -7 -62 13 -14 18 42 20 55 8 55 -5 0 -14 -18
-21 -41z"/>
<path d="M2660 1156 c-28 -35 11 -93 48 -70 35 22 22 84 -18 84 -10 0 -23 -7
-30 -14z m42 -18 c6 -17 -1 -38 -13 -38 -5 0 -9 11 -9 25 0 26 14 34 22 13z"/>
<path d="M2750 1160 c0 -5 9 -10 20 -10 27 0 25 -16 -5 -36 -36 -23 -31 -34
15 -34 22 0 40 5 40 10 0 6 -7 10 -17 10 -14 0 -14 2 2 20 15 16 15 22 5 35
-14 17 -60 21 -60 5z"/>
<path d="M2847 1125 c-19 -56 -5 -60 17 -5 19 47 19 50 7 50 -5 0 -16 -20 -24
-45z"/>
<path d="M2895 1161 c-3 -7 2 -11 14 -11 27 0 27 -26 1 -40 -31 -16 -24 -30
15 -30 19 0 35 5 35 10 0 6 -8 10 -17 10 -15 0 -15 1 1 13 26 19 17 51 -16 55
-14 2 -29 -2 -33 -7z"/>
<path d="M2990 1156 c-28 -35 11 -93 48 -70 35 22 22 84 -18 84 -10 0 -23 -7
-30 -14z m40 -31 c0 -14 -4 -25 -9 -25 -12 0 -23 29 -15 41 10 18 24 9 24 -16z"/>
<path d="M3093 1163 c-7 -2 -13 -9 -13 -14 0 -6 5 -7 10 -4 6 4 10 -8 10 -29
0 -25 4 -36 15 -36 11 0 15 12 15 45 0 44 -6 51 -37 38z"/>
<path d="M3177 1163 c-3 -4 -8 -22 -12 -40 -6 -29 -4 -33 19 -39 42 -10 55 1
53 43 -3 33 -6 38 -29 41 -14 2 -28 0 -31 -5z m33 -53 c0 -5 -4 -10 -10 -10
-5 0 -10 5 -10 10 0 6 5 10 10 10 6 0 10 -4 10 -10z"/>
<path d="M3700 1125 c0 -46 16 -63 22 -22 2 12 8 22 13 22 6 0 11 -10 13 -22
5 -36 24 -27 20 10 -2 26 -7 32 -25 30 -15 -2 -23 3 -23 12 0 8 -4 15 -10 15
-5 0 -10 -20 -10 -45z"/>
<path d="M4270 1160 c0 -5 9 -10 20 -10 24 0 25 -8 5 -34 -17 -23 -19 -36 -5
-36 12 0 50 59 50 78 0 7 -14 12 -35 12 -19 0 -35 -4 -35 -10z"/>
<path d="M5032 1161 c-11 -7 -10 -9 3 -15 9 -3 13 -10 10 -16 -8 -13 3 -50 16
-50 5 0 9 20 9 45 0 45 -10 54 -38 36z"/>
<path d="M5117 1163 c-15 -15 -7 -43 13 -43 11 0 20 -4 20 -10 0 -5 -9 -10
-20 -10 -11 0 -20 -4 -20 -10 0 -13 26 -13 51 0 27 15 24 37 -8 48 -25 9 -25
11 -6 11 34 1 39 21 5 21 -16 0 -32 -3 -35 -7z"/>
<path d="M5208 1125 c-21 -56 -6 -60 16 -5 18 46 19 50 8 50 -4 0 -15 -20 -24
-45z"/>
<path d="M5273 1163 c-7 -2 -13 -9 -13 -14 0 -6 4 -8 9 -4 5 3 11 -9 13 -27 4
-47 22 -41 26 10 3 42 -3 48 -35 35z"/>
<path d="M1001 1146 c-8 -10 -9 -16 -1 -21 5 -3 10 -15 10 -26 0 -13 7 -19 21
-19 18 0 19 2 9 15 -10 12 -10 19 -2 27 8 8 7 14 -3 24 -17 17 -20 17 -34 0z"/>
<path d="M1380 1150 c0 -5 5 -10 10 -10 6 0 10 -13 10 -30 0 -20 5 -30 15 -30
12 0 15 10 13 40 -2 34 -5 40 -25 40 -13 0 -23 -4 -23 -10z"/>
<path d="M1470 1141 c0 -11 9 -21 22 -25 25 -6 16 -21 -17 -29 -14 -3 -10 -5
11 -6 16 0 35 4 41 10 16 16 4 39 -21 40 -21 0 -21 0 2 9 30 13 28 20 -8 20
-23 0 -30 -5 -30 -19z"/>
<path d="M1615 1150 c-3 -5 1 -10 9 -10 11 0 16 -9 16 -30 0 -16 5 -30 10 -30
6 0 10 18 10 40 0 33 -3 40 -19 40 -11 0 -23 -4 -26 -10z"/>
<path d="M2177 1152 c-9 -13 5 -64 20 -69 20 -8 26 2 14 25 -8 15 -8 22 2 25
9 4 8 8 -3 16 -18 13 -27 14 -33 3z"/>
<path d="M3637 1153 c-3 -5 -2 -23 0 -40 4 -23 11 -33 23 -33 14 0 17 7 14 33
-1 17 -3 35 -3 40 -1 4 -7 7 -15 7 -8 0 -17 -3 -19 -7z"/>
<path d="M3967 1152 c-9 -13 5 -64 20 -69 21 -8 28 4 12 23 -11 14 -11 18 -1
22 10 3 10 7 1 18 -13 15 -25 18 -32 6z"/>
<path d="M4878 1155 c-9 -9 3 -54 18 -66 7 -6 18 -8 25 -4 8 6 7 10 -2 16 -11
7 -12 12 -2 28 10 16 9 20 -3 25 -19 7 -29 8 -36 1z"/>
<path d="M2095 1141 c-3 -5 3 -12 12 -14 17 -4 17 -5 1 -6 -11 -1 -18 -9 -18
-21 0 -16 7 -20 35 -20 30 0 35 3 35 23 0 13 -5 28 -12 35 -14 14 -44 16 -53
3z"/>
<path d="M2239 1134 c-18 -21 0 -48 35 -52 32 -4 35 15 4 21 -20 4 -19 4 5 6
29 1 34 10 15 29 -17 17 -43 15 -59 -4z"/>
<path d="M2325 1141 c-6 -11 9 -23 19 -14 9 9 7 23 -3 23 -6 0 -12 -4 -16 -9z"/>
<path d="M3806 1137 c-29 -21 -16 -51 22 -55 18 -2 32 1 32 7 0 6 -10 12 -22
12 -18 1 -17 3 6 8 28 6 29 7 12 24 -21 20 -27 21 -50 4z"/>
<path d="M3885 1141 c-3 -5 5 -12 17 -14 l23 -4 -22 -2 c-16 -1 -23 -7 -23
-21 0 -16 7 -20 35 -20 30 0 35 3 35 23 0 13 -5 28 -12 35 -14 14 -44 16 -53
3z m35 -41 c0 -5 -2 -10 -4 -10 -3 0 -8 5 -11 10 -3 6 -1 10 4 10 6 0 11 -4
11 -10z"/>
<path d="M4038 1139 c-22 -13 -23 -45 -2 -53 25 -10 54 -7 54 5 0 6 -7 9 -15
6 -8 -4 -17 -2 -20 3 -4 6 5 10 19 10 31 0 34 15 7 30 -23 12 -22 12 -43 -1z"/>
<path d="M4133 1142 c-18 -3 -23 -10 -23 -33 0 -19 5 -29 15 -29 8 0 15 8 15
18 0 10 5 23 12 30 15 15 9 19 -19 14z"/>
<path d="M4176 1142 c-3 -6 -1 -14 5 -17 15 -10 25 3 12 16 -7 7 -13 7 -17 1z"/>
<path d="M4636 1135 c-3 -8 2 -19 12 -24 16 -10 16 -10 -1 -11 -10 0 -15 -4
-12 -10 10 -16 45 -12 52 6 3 9 0 20 -8 25 -10 6 -10 9 -1 9 6 0 12 5 12 10 0
16 -47 12 -54 -5z"/>
<path d="M4712 1138 c-6 -6 -12 -18 -12 -25 0 -14 31 -33 54 -33 24 0 19 18
-6 23 -19 4 -18 5 5 6 21 1 28 5 25 19 -4 21 -48 28 -66 10z"/>
<path d="M4803 1136 c3 -8 1 -16 -5 -18 -25 -9 1 -37 32 -36 29 1 31 4 28 32
-3 26 -8 32 -32 34 -22 3 -27 0 -23 -12z"/>
<path d="M4942 1141 c2 -7 7 -12 11 -12 12 1 9 15 -3 20 -7 2 -11 -2 -8 -8z"/>
<path d="M760 1125 c0 -9 8 -19 18 -22 14 -6 13 -8 -8 -14 -23 -6 -23 -7 8 -8
35 -1 46 24 15 36 -15 6 -15 7 3 14 16 6 15 8 -8 8 -19 1 -28 -4 -28 -14z"/>
<path d="M837 1134 c-26 -26 16 -70 53 -56 11 4 8 8 -10 13 -25 7 -25 7 -2 8
17 1 22 6 20 19 -3 17 -48 29 -61 16z"/>
<path d="M934 1131 c19 -7 19 -8 -3 -14 -32 -8 -21 -31 17 -35 30 -3 32 -1 32
27 0 28 -3 31 -32 30 -26 0 -29 -2 -14 -8z m26 -31 c0 -5 -4 -10 -10 -10 -5 0
-10 5 -10 10 0 6 5 10 10 10 6 0 10 -4 10 -10z"/>
<path d="M1060 1130 c0 -5 7 -10 15 -10 8 0 15 5 15 10 0 6 -7 10 -15 10 -8 0
-15 -4 -15 -10z"/>
<path d="M1770 1075 c0 -19 5 -35 10 -35 6 0 10 16 10 35 0 19 -4 35 -10 35
-5 0 -10 -16 -10 -35z"/>
<path d="M4940 1095 c0 -9 5 -15 11 -13 6 2 11 8 11 13 0 5 -5 11 -11 13 -6 2
-11 -4 -11 -13z"/>
<path d="M1060 1090 c0 -5 7 -10 15 -10 8 0 15 5 15 10 0 6 -7 10 -15 10 -8 0
-15 -4 -15 -10z"/>
<path d="M2320 1090 c0 -5 7 -10 15 -10 8 0 15 5 15 10 0 6 -7 10 -15 10 -8 0
-15 -4 -15 -10z"/>
<path d="M4170 1090 c0 -5 7 -10 15 -10 8 0 15 5 15 10 0 6 -7 10 -15 10 -8 0
-15 -4 -15 -10z"/>
</g>
</svg>
