<?xml version="1.0" encoding="UTF-8"?>
<svg id="Layer_1" data-name="Layer 1" xmlns="http://www.w3.org/2000/svg" viewBox="0 0 732.89 668.85">
  <defs>
    <style>
      .cls-1 {
        fill: #010101;
        stroke-width: 0px;
      }

      .cls-2 {
        fill: #d82027;
        font-family: MyriadPro-Regular, 'Myriad Pro';
        font-size: 200px;
      }
    </style>
  </defs>
  <g>
    <path class="cls-1" d="m7.2,370.33c6.22,2.96,10.34,6.64,15.48,13.21,2.02,2.69,4.13,5.08,4.73,5.47s36.7.49,80.2.24l79.1-.36,1.88-3.61c2.57-4.81,13.02-14.58,18.2-16.91l4.19-1.92-.99-172.3-.99-172.3-5.31-2.37c-5.71-2.57-14.36-10.62-17.29-16l-1.92-3.49-59.3.24c-34.6.2-59.3.74-59.29,1.24.02,4.2-1.98,4.11,58.52,3.76l57.3-.33,2.12,3.19c2.83,4.58,8.66,9.95,15.38,14.11l5.82,3.67.67,168.6.77,168.7-5.48,3.23c-5.28,3.13-12.64,10.17-15.91,15.29q-1.49,2.31-26.49,2.45c-21.4.12-24.7.34-23.19,1.43,1.21.99,1.51,1.59.71,2.1-.6.4-2.2-.19-3.41-1.38-2.21-2.09-2.81-2.08-52.81-1.8l-50.6.29-2.12-3.39c-2.93-4.58-11.07-11.94-15.98-14.41-2.21-1.09-4.31-2.48-4.62-2.87-.71-1.2-.72-4.3-1.65-181.99l-.89-155.3,3.19-1.72c5.38-3.03,13.14-9.68,16.72-14.6l3.47-4.72,18.8-.11,18.8-.11-.31-2.3c-.31-2.2-.41-2.2-20.31-2.38l-20-.08-1.88,3.41c-2.87,5.52-10.63,12.96-16.71,16.2l-5.78,3.03.99,172.1.99,172.2,5.21,2.57ZM2.52,114.45c.5-.3,1-.11,1,.39,0,.6-.49,1.1-.99,1.11-.6,0-1-.19-1-.39,0-.3.4-.8.99-1.11Z"/>
    <path class="cls-1" d="m24.61,285.73c2.85,9.28,9.57,12.95,22.67,12.17,3.1-.22,3.3-.42,3.28-4.12l-.02-3.8-7.9-.45c-12-.63-16.52-4-14.77-11.32.39-1.4,1.59-2.61,3.18-3.02s2.39-1.21,2.19-2.31c-.41-2.1-7.32-2.76-8.1-.75-1.18,3.21-1.44,10.41-.52,13.6Z"/>
    <path class="cls-1" d="m106.28,332.36c53.5-.31,81.5-.77,81.49-1.47s-27.91-.84-81.5-.53c-51.4.4-81.5.87-81.49,1.47s30.11.83,81.5.53Z"/>
    <path class="cls-1" d="m24.8,265.82c.3,0,1.29-1.51,2.28-3.31,1.29-2.41,1.78-2.81,2.09-1.51.31,1.6,1.91,1.79,14.91,1.71,12.2-.07,14.9.21,16.51,1.6,1.71,1.49,1.81,1.29,1.77-6.01-.04-7.2-1.06-9.79-2.44-6.19-.49,1.4-2.89,1.62-16.99,1.4l-16.4-.21-.58,3c-.29,1.6-.77,4.5-1.16,6.21-.29,1.8-.38,3.3.02,3.3Z"/>
    <path class="cls-1" d="m24.97,244.02c.2-.6.19-1.8-.01-2.5-.3-.6-.5-.1-.49,1.3s.21,1.9.51,1.2Z"/>
    <path class="cls-1" d="m26.03,220.42c1.49-1.41,3.69-1.62,12.99-1.47l11.1.24-10.17,5.76c-14.65,8.18-14.06,7.68-13.22,13.18l.73,4.7,16.1-.09c14-.08,16.1.11,17.31,1.6,1.21,1.59,1.31.99,1.38-4.11-.03-5.6-.13-5.8-1.82-4.29-1.99,1.81-3.49,2.02-16.69,1.9l-10-.04,3.49-1.92c9.67-5.16,18.44-10.91,18.53-12.01.29-2.5.48-2.7,1.29-1.41,1.51,2.49,5.1-.73,5.07-4.53l-.02-3.3-16.9.1c-13.7.08-17.2-.2-18.51-1.39-2.31-2.29-2.61-1.88-2.58,3.71.03,4.9.13,5,1.92,3.39Z"/>
    <path class="cls-1" d="m24.65,205.82c.3,0,1.2-.71,1.99-1.51,1.19-1.21,4.59-1.53,16.99-1.6,12.8-.07,15.6.21,16.01,1.41,1.62,4.09,2.4.19,2.33-12.01-.07-12.5-.18-13.5-1.98-13.49-1,0-3.3-.28-5-.57-2.7-.58-3.1-.38-3.09,1.52,0,1.4,1.11,2.49,3.52,3.48,3.31,1.38,3.51,1.68,3.54,6.48l.03,5.1-7.5.04-7.5.04-.02-3c-.01-1.9.68-3.4,1.98-4.21,3.69-2.42,2.38-3.81-3.52-3.78-4.3.02-5.5.33-5.49,1.53,0,.9.61,1.8,1.41,2.09,1.9.69,2.82,3.18,2.13,5.49-.49,1.6-1.69,1.91-7.09,1.94l-6.4.04-.02-4.3c-.03-4.8.57-5.9,3.66-7.62,3.99-2.12,2.88-4.12-2.22-4.09l-4.5.03.08,13.5c.04,7.4.38,13.5.68,13.5Z"/>
    <path class="cls-1" d="m24.76,172.82c.5,0,1.1-.71,1.49-1.51.89-2.31,31.19-2.38,33.8,0,1.71,1.49,1.81,1.39,1.78-3.51-.03-5.6-.33-6-2.62-3.68-1.19,1.21-4.29,1.52-14.59,1.58-7.2.04-12.9-.13-12.7-.43.3-.2,4.99-2.03,10.48-4.06,15.57-5.69,15.37-5.59,15.15-8.09-.21-1.9-2.12-2.89-13.04-6.93-7.02-2.66-12.73-4.93-12.53-5.03.2-.2,5.7-.43,12.2-.57,7.7-.14,12.3-.57,12.79-1.37.6-.8,1-.81,1.3,0,.3.6,1.11,1.99,1.92,2.99,1.31,1.69,1.41,1.19,1.47-5.41l-.04-7.3-2.49,1.81c-1.39,1.01-2.78,3.02-3.17,4.62-.78,3.6-2.27,4.51-2.29,1.31,0-1.4.39-2.6.99-2.61.5,0,1-.51.99-1.01,0-.6-5.51-.97-14.51-.92-12,.07-14.7-.22-15.11-1.41-1.42-3.59-2.51-.99-2.17,5.11l.34,6.6,10.22,3.64c5.61,1.97,10.42,3.84,10.82,4.14.3.4-4.39,2.43-10.37,4.46-8.78,2.95-11.08,4.06-11.07,5.56,0,1,.41,2.2,1.01,2.49.5.3,1.01,1.49,1.01,2.59s-.49,1.7-.99,1.41c-.6-.4-1,.71-.99,2.41s.42,3.1.92,3.09Z"/>
    <path class="cls-1" d="m25.21,111.52c10.82,3.54,31.47,11.72,33.58,13.21l2.81,1.98-.04-6.2q-.04-6.2-2.03-4.39c-1.69,1.51-2.69,1.72-5.79.93l-3.71-.88-.34-6.1c-.33-5.7-.14-6.2,1.96-6.81,3.49-.92,7.8-.74,7.8.36,0,.5.41,1,1.01.99s.98-3.21.96-7.51c-.04-6.9-1.05-9.49-2.34-6.09-.59,1.4-8.18,4.15-25.95,9.35l-9.68,2.76.02,3.9c.02,2.8.52,4,1.73,4.49Zm11.88-4.17c2.7-.72,5.89-1.63,7.09-2.04,2.2-.71,2.3-.51,2.32,4.29.02,2.8-.17,5.1-.27,5.1-.4,0-10.42-3.34-13.63-4.42-2-.79-.91-1.49,4.48-2.93Z"/>
    <path class="cls-1" d="m42.61,59.72c11.9-.07,19.7-.51,20.09-1.12.4-.7-6.31-.96-19.41-.89-12.7.07-20.1.52-20.09,1.12s7.11.96,19.41.89Z"/>
    <path class="cls-1" d="m35.89,368.86c7.94,7.75,20.59-1.62,15.73-11.59-1.82-3.79-6.63-5.36-11.22-3.54-3.59,1.42-4,.82-2.62-3.18,1.47-4.41,4.86-7.83,7.75-7.84,1.3,0,2.3-.51,2.29-1.11,0-1.5-5.6-.37-8.69,1.65-3.88,2.62-6.25,8.74-6.21,16.04.03,6,.34,6.9,2.96,9.58Zm4.22-13.12c3.19-1.72,5.4-.83,7.72,3.16,2.53,4.39-.54,10.8-5.34,10.83-3.4.02-5.62-3.67-5.35-8.47.18-3.1.88-4.31,2.97-5.52Z"/>
    <path class="cls-1" d="m33.75,48.67c3.21,2.48,9.22,2.75,13.3.52,4.79-2.43,5.46-7.73,1.73-12.11l-2.32-2.69,2.29-2.31c6.16-6.24-1.58-14.39-11.27-11.94-6.09,1.54-8.55,8.55-4.33,12.73l2.11,2.09-2.09,2.21c-3.08,3.32-2.75,8.92.57,11.5Zm3.04-11.12c3.58-3.92,10.3-.66,10.33,5.04.03,4.5-2.96,6.82-7.96,6.15-3.9-.38-5.44-7.77-2.36-11.19Zm-.18-14.3c2.49-2.51,7.49-1.64,9.41,1.65,1.31,2.49,1.32,3.09.03,5.5-2.97,5.42-10.98,3.46-11.02-2.74,0-1.5.68-3.5,1.57-4.41Z"/>
    <path class="cls-1" d="m52.65,292.46c.93,4.39,1.43,4.79,4.32,2.78,4.18-2.72,5.96-7.33,5.81-15.33-.02-3.9-.44-7.6-.75-8.2-.4-.6-2.51-1.09-4.71-1.07-4.9.03-5.38,2.73-.87,5.21,5.22,2.97,3.86,9.98-2.53,12.51-1.7.71-1.89,1.31-1.28,4.11Z"/>
    <path class="cls-1" d="m67.2,370.88l9.3-.25.18-3.8c.28-3.7.28-3.8-1.31-1.59-1.39,2.01-2.59,2.31-7.59,2.34-7.1.04-7.09.94.71-15.1,2.97-6.02,5.34-11.13,5.33-11.43s-.8-.5-1.8-.49c-1.2,0-3.28,3.92-7.92,14.55-3.35,7.92-6.11,14.84-6.11,15.24,0,.5,4.2.78,9.2.55Z"/>
    <path class="cls-1" d="m58.53,46.13c1.21,1.59,1.41,1.29,1.98-3.61.86-6.61,1.85-7.91,6.15-7.94,6.2-.04,8.74,7.75,3.97,12.48-2.78,2.92-5.08,3.23-7.7.84-1.61-1.39-1.81-1.39-1.8-.09.01,1.9,2.12,2.79,6.42,2.76,8-.05,12.24-10.17,6.71-16.34-1.71-1.89-8.21-2.25-11.3-.63-1.49.91-1.9.71-1.9-.69-.01-2,4.34-9.73,5.64-9.93,3.8-.52,7.19-1.84,6.68-2.64-1.92-2.99-11.68,3.57-14.44,9.68-2.17,4.81-2.42,13.41-.41,16.1Z"/>
    <path class="cls-1" d="m66.01,58.98c1.3.39,2.6.49,2.9.18,1.09-1.01-.41-1.8-2.91-1.38l-2.3.41,2.3.79Z"/>
    <path class="cls-1" d="m74.81,58.93c2.71,1.08,54.2.39,54.9-.72.4-.7-9.21-.95-27.91-.84-15.7.09-28.6.36-28.6.56s.7.7,1.61.99Z"/>
    <path class="cls-1" d="m80.78,211.2c.21,1.2,1.82,3.39,3.43,4.78,2.41,1.99,4.11,2.48,8.31,2.45,6.4-.04,9.19-1.85,10.66-6.96,1.57-5.41.55-9.1-2.65-9.08-3,.02-3.19,1.12-.48,2.8,2.61,1.59,2.53,4.69-.16,6.6-4.08,2.92-14.69,1.78-17.01-1.7-1.21-1.69-1.01-2.49,1.18-4.31,2.69-2.32,2.48-3.31-.52-3.3-1.8.01-2.5.51-2.49,1.91,0,1.1-.19,2.5-.38,3.3-.2.7-.09,2.3.12,3.5Z"/>
    <path class="cls-1" d="m84.33,253.48c3.4-.02,3.99-1.52.99-2.51-1.1-.29-2.01-1.49-2.01-2.59,0-1.7.79-1.9,9.29-1.95,5.9-.03,9.7.34,10.51,1.14.91.89,1.2.19,1.18-3.51-.01-2.6-.53-4.7-1.03-4.69-.6,0-1,.41-.99,1.01s-3.79,1.02-9.49,1.05c-8.8.05-9.5-.05-9.51-1.95,0-1,.89-2.41,2.08-3.01,2.39-1.41,1.89-2.21-1.61-2.59l-2.5-.29.06,10,.06,9.9,3-.02Z"/>
    <path class="cls-1" d="m81.89,230.69c.3-.8,3.19-1.22,9.39-1.25,5.9-.03,8.9-.45,8.89-1.15,0-.6.9-.11,2.01,1.19,1.81,2.29,1.91,2.29,2,.39-.03-5.8-.43-6-10.63-5.64-6.3.24-10-.04-11.01-.84-1.21-.99-1.4-.39-1.28,3.71.02,2.7.32,4.3.62,3.6Z"/>
    <path class="cls-1" d="m81.91,198.69c.59-1.1,3.39-1.32,11.49-1.07l10.6.24-.02-3.8c-.01-2-.52-3.7-1.02-3.69-.6,0-1,.41-.99,1.01,0,.5-1.99,1.01-4.49,1.03-2.9.02-4.5-.37-4.51-1.27,0-1.4,7.07-5.74,9.37-5.75,1.2,0,1.59-1.11,1.58-4.01-.02-3.9-1.23-5.19-2.62-2.88-.3.6-3.08,2.62-6.07,4.54l-5.38,3.53-4.43-4.47-4.53-4.47.03,4.7c.02,3.2.32,4.2.92,3.29.79-1.2,1.59-1.01,5.01,1.17,5.32,3.47,5.43,5.67.33,5.7-2.1.01-4.3-.48-5.01-1.17-.91-.89-1.2-.09-1.18,3.71.02,3.2.33,4.5.92,3.69Z"/>
    <path class="cls-1" d="m82.07,174.69c1.49-1.51,18.39-1.81,19.3-.31,1.82,2.89,2.6.29,2.26-7.31-.35-8.1-.35-8.2-3.15-8.48-3.2-.38-3.69,1.72-.68,3.6,1.1.69,2.01,2.29,2.02,3.69.01,2.3-.39,2.5-4.49,2.53-3.8.02-4.5-.27-4.51-1.87,0-1.1.59-2.2,1.19-2.41,2.19-.91-1.01-2.49-3.81-1.88-2.3.41-2.4.61-.89,2.21,2.72,2.98,1.82,4.09-2.78,3.82-3.8-.28-4.2-.48-3.92-2.78.19-1.4.98-3.01,1.78-3.61,1.99-1.61,1.79-2.11-1.11-2.59l-2.5-.49.05,8.5c.04,6.7.35,8.3,1.24,7.39Z"/>
    <path class="cls-1" d="m83.26,155.99c3.4-.22,4.09-1.12,1.59-2.51-1.2-.59-2.11-1.99-2.12-2.99-.01-1.9.69-2,9.49-2.05,5.7-.03,9.5.35,9.51.95,0,.5.41,1,1.01.99.5,0,.99-2.11.97-4.71-.02-3.7-.33-4.4-1.22-3.49-.8.8-4.59,1.23-10.49,1.26-8.5.05-9.3-.15-9.31-1.85,0-1.1.89-2.31,1.98-2.61,2.6-.81,1.59-2.51-1.61-2.49-2.4.01-2.4.11-2.34,9.81l.06,9.8,2.5-.11Z"/>
    <path class="cls-1" d="m84.9,353.18c1.52,3.59,5.53,5.57,10.13,4.94l4-.52-.27,4.6-.27,4.7-6.1.34c-5.4.33-6.3.64-6.79,2.54-.59,2.5-.18,3.2,1.61,2.09.7-.4,4.1-.82,7.6-.84l6.4-.14-.04-7.5-.04-7.5-4.6.03c-5.6.03-8.01-2.05-8.04-7.05-.01-2.6.68-4.2,2.27-5.51,3.09-2.52,4.69-2.43,7.7.56s4.42,3.17,4.4.07c-.02-2.9-1.62-3.59-8.22-3.55-4.1.02-5.4.53-7.88,2.95-2.88,3.02-3.47,5.82-1.84,9.81Z"/>
    <path class="cls-1" d="m84.75,49.87c3.01,1.18,10.5.54,12.89-1.07,4.88-3.23,3.93-12.22-1.58-13.89-1.9-.59-1.8-.79.98-3.21,5.77-4.93,3.03-12.32-4.67-12.27-4.9.03-9.39,1.95-9.38,4.15.01,2.5,2.21,2.39,3.8-.12,1.39-2.21,6.08-2.74,8-.85,3.02,2.98-.54,10.8-5.04,10.83-3.2.02-2.59,1.81.81,2.4,4.51.87,6.93,4.36,6.05,8.57-.39,2-1.48,3.41-3.08,4.02-2.89,1.12-6.9-.16-7.71-2.36-1.01-2.39-2.71-1.88-2.7.82,0,1.3.72,2.7,1.62,2.99Z"/>
    <path class="cls-1" d="m112.4,353.82c1.31,1.39,2.91,2.48,3.51,2.48s-.19,1.2-1.88,2.61c-3.38,2.82-4.25,8.22-1.74,10.31,2.31,1.79,7.11,2.26,11.51,1.03,3.49-.92,4.19-1.52,4.18-3.52-.02-3.2-1.32-3.19-3.4.02-2.87,4.42-9.58,2.66-9.61-2.44-.02-3.2,3.26-7.02,6.06-7.04,3.3-.02,2.89-1.82-.61-2.4-6.01-1.17-8.54-7.55-4.57-11.57,2.68-2.72,5.59-2.53,8.4.45,2.92,3.08,4.62,3.17,4.6.07-.02-2.7-2.12-3.59-8.72-3.55-5.5.03-7.1.74-8.78,4.15-2.08,4.01-1.86,6.61,1.05,9.39Z"/>
    <path class="cls-1" d="m109.75,49.73c.9.29,3.8.58,6.5.56,4-.02,5.5-.53,7.49-2.54,1.49-1.51,2.28-3.31,1.98-4.31-.21-.9-.72-3.4-1.13-5.39-.73-4.5-3.14-6.08-8.33-5.55l-3.7.32-.33-4.8-.33-4.7,5.3-.03c5.2-.03,7.79-1.24,7.78-3.54,0-.6-2.7-.78-7.7-.46l-7.6.54.02,3.7c.11,2.1.23,5.6.24,7.8l.12,4,3.8-.62c5.2-.83,8.61,1.85,8.64,6.95.01,2-.68,4.3-1.57,5.21-2.29,2.31-6.79,2.14-8.9-.45-.91-1.09-2.21-2.09-2.81-2.08-1.7,0-1.27,4.71.53,5.4Z"/>
    <path class="cls-1" d="m128.45,274.13c3.81,1.08,4.01,1.38,4.03,5.38l.12,4.2,2.68-3.32,2.68-3.32,4.21,1.48,4.31,1.48-2.62-3.88-2.72-3.98,2.88-3.72c2.28-3.01,2.38-3.51.78-2.9-1,.41-3.29,1.02-4.89,1.33-2.6.41-3.3.02-5.02-2.87l-2.02-3.29-.47,4.4c-.38,3.9-.87,4.61-3.67,5.52-4.69,1.63-4.69,2.23-.28,3.5Z"/>
    <path class="cls-1" d="m128.02,235.03c4.11,1.18,4.21,1.38,4.23,5.48l.12,4.2,2.68-3.32c2.58-3.11,2.88-3.22,5.99-2.13,4.21,1.38,4.71.87,2.19-2.41-2.52-3.09-2.52-3.59-.04-6.7,2.78-3.62,2.48-4.11-1.61-2.39-1.99.91-3.99,1.22-4.4.73-.3-.4-1.61-2.09-2.82-3.68l-2.22-2.89.03,4.7c.02,3-.37,4.6-1.27,4.61-.6.1-2.5.71-4.09,1.32l-2.89,1.32,4.11,1.18Z"/>
    <path class="cls-1" d="m127.7,196.23c4.21,1.28,4.31,1.38,4.33,5.88l.03,4.6,2.58-3.81c1.69-2.51,3.08-3.72,4.08-3.32.8.3,2.71.88,4.11,1.28q2.7.58.89-1.81c-2.92-4.08-3.03-4.68-.25-8.3l2.68-3.62-4.19,1.52c-2.3.81-4.39,1.53-4.59,1.53s-1.51-1.69-2.92-3.68l-2.52-3.79.03,4.8c.02,3.1-.37,4.7-1.27,4.71-.6.1-2.6.71-4.19,1.42l-2.99,1.32,4.21,1.28Z"/>
    <path class="cls-1" d="m127.47,157.23c4.21,1.28,4.31,1.38,4.33,5.78s.13,4.4,1.41,2.59c.79-1,.99-2.11.49-2.2-1.2-.49-1.22-4.19.08-4.2.5,0,1,.79,1.01,1.69,0,1.3.31,1.4,1.1.59s2.2-.81,5.1.27c2.2.79,4.21,1.38,4.51,1.37.2,0-.81-1.6-2.32-3.49-2.72-3.58-2.72-4.28.25-8.4q1.79-2.41-.91-1.79c-1.4.41-3.19.92-3.99,1.22-.9.41-2.51-.89-4.12-3.18l-2.72-3.78.03,4.7c.03,4.6-.07,4.7-4.26,6.12l-4.19,1.42,4.21,1.28Z"/>
    <path class="cls-1" d="m127.45,118.43c3.91,1.58,4.11,1.78,4.23,5.98l.02,4.3,1.69-2.51c.89-1.31,2.48-3.31,3.48-4.32.89-.91,1.98-3.81,2.36-6.21.48-3.8.27-4.4-.92-3.99-1,.41-2.4-.49-3.92-2.68l-2.42-3.29-.47,4.5c-.48,4.2-.67,4.5-4.37,5.53l-3.79,1.12,4.11,1.58Z"/>
    <path class="cls-1" d="m131.9,58.5c.5.2,12.8.43,27.5.44,18.7.09,26.8-.25,26.79-.95,0-.8-8.51-1.05-27.51-.94-15.1.09-27.5.36-27.5.56,0,.3.3.7.71.9Z"/>
    <path class="cls-1" d="m135.91,355.49c2.01,2.49,2.82,2.78,6.41,2.46,2.3-.31,5-.83,5.99-1.33,1.7-.71,1.8-.51,1.21,1.89-1.37,5.61-3.26,7.42-10.54,10.46-2.1.81-2.29,1.11-.79,1.7,2.51.99,8.69-2.45,12.16-6.77,4.67-6.03,4.9-17.43.47-21.8-2.92-2.88-10.02-2.64-13.5.38-3.78,3.22-4.35,9.33-1.43,13.01Zm4.43-11.83c2.88-3.02,4.88-3.13,7.5-.54,2.82,2.78,2.86,10.48.17,12-7.58,4.04-13.83-5.32-7.67-11.46Z"/>
    <path class="cls-1" d="m135.71,25.38c1.29-1.91,2.49-2.21,7.39-2.24,3.3-.02,5.9.17,5.9.47s-2.66,6.22-5.92,13.23c-3.26,6.92-5.93,12.83-5.93,13.03,0,.1.8.3,1.7.29,1.3,0,3.38-3.82,8.01-14.85,3.35-8.12,6.11-15.04,6.11-15.34s-4.3-.68-9.5-.75l-9.5-.15.12,4.3q.02,4.2,1.61,1.99Z"/>
    <path class="cls-1" d="m143.08,123.54c1.3.39,1.4.19.49-1.4-1.31-2.29-2.01-2.59-2-.59,0,.8.71,1.6,1.51,1.99Z"/>
    <path class="cls-1" d="m142.12,114.15c.2,0,.79-.9,1.39-2.01s.69-2,.19-2c-.6,0-1.19.91-1.49,2.01s-.29,2-.09,2Z"/>
    <path class="cls-1" d="m160.67,365.84c.51,2.5,4.93,5.17,8.63,5.15,9-.05,13.56-7.08,8.62-13.25-1.91-2.49-1.91-2.59-.02-4.3,1.29-1.21,1.98-3.11,1.97-5.61-.03-5.1-3.55-7.88-10.05-7.84-4.2.02-5.2.43-7.38,3.14-1.39,1.71-2.58,3.61-2.57,4.41.01,1.8,2.64,6.68,4.14,7.58,1,.59.81,1.2-.79,2.6-2.39,2.01-3.17,4.72-2.55,8.11Zm4.86-6.63c1.78-2.61,6.48-3.04,8.8-.65.9.79,1.62,2.79,1.63,4.39.02,3.6-2.37,6.01-5.97,6.03-3,.02-6.02-2.97-6.03-5.97,0-.9.69-2.6,1.58-3.81Zm-.49-15.5c2.18-2.81,6.28-3.24,8.7-.85,4.12,4.08,1.77,12.09-3.53,12.12-5,.03-8.24-7.05-5.16-11.27Z"/>
    <path class="cls-1" d="m159.26,33.65c1.11,2.29,4.83,4.37,7.63,4.36.9,0,3-.72,4.59-1.53l2.89-1.52-.68,3.2c-.87,4.61-3.65,8.12-7.35,9.34-3.29,1.02-4.29,2.52-1.69,2.51,3.2-.02,8.28-2.95,10.47-6.06,1.78-2.61,2.37-5.01,2.74-11.12.36-7.6.35-7.9-2.66-10.88-8.05-7.85-20.89,1.62-15.93,11.69Zm4.34-10.43c1.88-2.81,6.38-2.94,8.8-.35,1.21,1.29,1.62,3.19,1.44,6.19-.18,3.7-.77,4.6-3.07,5.72-1.5.71-3.69,1.02-4.8.73-3.71-1.18-5.15-8.27-2.37-12.29Z"/>
    <path class="cls-1" d="m172.28,280.27c4.21,1.48,9.42,3.55,11.43,4.53l3.81,1.88v-2.6c-.03-2.4-.43-2.7-3.33-2.68-3,.02-3.2-.18-3.52-4.08-.32-3.8-.12-4.2,2.37-4.81,1.8-.51,3-.32,3.5.58.6.8.9-.31.88-3.01l-.02-4.3-2.99,1.62c-1.6.81-3.59,1.52-4.39,1.53s-3.5.62-5.79,1.43c-2.4.81-5.49,1.73-7.09,2.04-1.9.51-2.69,1.32-2.68,2.92.01,1.8,1.31,2.59,7.83,4.96Zm2.57-5.31c3.5-.82,3.6-.72,3.61,2.18.02,2.7-.28,3-2.29,2.31-1.2-.29-3.21-.88-4.51-1.17-3-.68-1.61-2.19,3.18-3.32Z"/>
    <path class="cls-1" d="m165.48,262.21c1.69-1.61,18.99-1.81,20.7-.12s1.54-10.81-.18-14.2c-1.82-3.69-7.84-6.25-12.63-5.43-6.29,1.04-8.28,4.15-8.82,13.25-.26,6.4-.16,7.6.94,6.49Zm1.84-11.21c2.28-4.31,15.77-4.69,17.4-.5,2.13,5.39.64,6.1-11.17,5.66-7.6-.36-8.41-1.05-6.23-5.16Z"/>
    <path class="cls-1" d="m165.44,238.21c1.69-1.71,20.49-1.82,21.1-.12.3.7.6-.2.59-2,.09-2.4-.22-3.1-1.21-2.49-1.3.81-16.89,1.2-16,.39.2-.3,3.69-1.62,7.58-3.04,4.19-1.52,7.18-3.14,7.18-3.94s-3.01-2.38-7.02-3.86c-10.62-3.74-10.42-4.24,1.28-3.31l8.2.65-.02-4c-.02-3.1-.32-3.7-1.22-2.79-1.49,1.51-18.39,1.81-19.3.31-1.31-2.09-2.5-.79-2.48,2.81q.02,3.8,6.54,6.06c3.61,1.28,6.31,2.56,6.02,2.97-.2.4-3.09,1.62-6.48,2.64l-5.99,1.83.03,4.6c.02,3.5.32,4.2,1.22,3.29Z"/>
    <path class="cls-1" d="m165.07,209.02c.4,0,1-.31,1.4-.81,1.19-1.11,19-.21,19.81,1.09.4.6.79-.9.78-3.4l-.03-4.5-9.2.75c-5.1.33-9.9.76-10.6.76-.6.1-1.2.81-1.19,1.61s-.39,1.5-.79,1.5c-.5,0-.9.71-.89,1.51s.31,1.5.71,1.5Z"/>
    <path class="cls-1" d="m164.74,203.22c.3-.7.19-1.6-.11-1.9-.3-.4-.6.2-.49,1.3,0,1.1.31,1.4.6.6Z"/>
    <path class="cls-1" d="m165.51,198.01c.8,0,1.5-.51,1.49-1.11,0-.8.5-.8,1.5.09.8.7,1.5.79,1.5.39,0-.5-.91-1.49-2.01-2.19s-2.01-2.09-2.02-3.19c-.01-1.8.69-2,8.89-2.05,6.8-.04,9.3.35,10.51,1.54,1.51,1.39,1.61,1.09,1.58-3.81-.02-2.9-.43-4.8-.82-4.1-.59,1-11.69,1.87-18.99,1.51-1.9-.09-1.42-2.89.78-4.1,2.89-1.62,2.38-3.01-1.02-2.99l-3,.02.06,10c.05,8.2.36,10,1.56,9.99Z"/>
    <path class="cls-1" d="m166.71,164.1c2.61,2.58,3.62,2.88,9.12,2.85,5.1-.03,6.5-.44,8.49-2.55,3.58-3.52,3.44-11.22-.18-14.6-2.21-1.99-3.61-2.38-9.11-2.35-5.9.03-6.7.34-8.88,2.85-3.48,4.12-3.24,9.92.58,13.8Zm3.54-10.92c2.4-.81,5.79-1.13,8.7-.85,3.3.48,4.8.27,5.1-.63.3-.7.5-.4.5.7-.09,1.1.32,2.8.62,3.7.51,1.1.01,2.4-1.28,3.71-2.68,2.72-12.38,3.07-15.9.59-3.51-2.48-2.53-5.59,2.26-7.21Z"/>
    <path class="cls-1" d="m165.39,142.61c2.9-.82,18.79-1.21,20.1-.32.8.5,1.2-.21,1.09-2.61-.01-1.8-.32-2.7-.61-2.1-.29.9-2.89,1.32-8.09,1.35l-7.7-.06,8.17-4.75c6.38-3.74,8.17-5.25,8.26-7.05-.01-2.1-.31-2.2-10.31-2.14-6.7.04-10.7-.34-11.51-1.13-.91-.89-1.2-.49-1.19,2.01.02,2.8.32,3.2,2.22,2.79,4.69-1.03,14.19-1.68,13.49-1.08-.4.4-3.98,2.62-7.87,4.85-6.48,3.74-7.27,4.54-7.56,7.54-.28,2.8-.08,3.2,1.52,2.69Z"/>
    <path class="cls-1" d="m164.56,120.02c.5,0,1-.51.99-1.01,0-1.5,18.29-1.41,19.8.09.91.89,1.2-.71,1.16-7.51-.05-8.4-.15-8.7-2.35-8.69-3.6.02-3.89,1.12-1.18,3.51,1.61,1.59,2.22,2.99,1.83,4.39-.39,1.7-1.29,2.11-4.89,2.13s-4.4-.27-4.41-1.87c0-1,.69-2.2,1.59-2.51,2.59-1.01.69-2.3-2.61-1.78-2.3.31-2.8.82-2.09,1.51.6.6,1.11,1.89,1.12,2.89,0,1.4-.79,1.8-3.99,1.82-3.8.02-4-.18-4.02-2.98-.01-1.9.68-3.3,1.98-4.01,2.59-1.41,1.68-3.01-1.62-2.99-2.4.01-2.4.21-2.35,8.51.03,5,.45,8.5,1.05,8.49Z"/>
  </g>
  <text class="cls-2" transform="translate(50.96 248.19)"><tspan x="0" y="0">1</tspan></text>
</svg>