<?xml version="1.0" standalone="no"?>
<!DOCTYPE svg PUBLIC "-//W3C//DTD SVG 20010904//EN"
 "http://www.w3.org/TR/2001/REC-SVG-20010904/DTD/svg10.dtd">
<svg version="1.0" xmlns="http://www.w3.org/2000/svg"
 width="577.000000pt" height="394.000000pt" viewBox="0 0 577.000000 394.000000"
 preserveAspectRatio="xMidYMid meet">

<g transform="translate(0.000000,394.000000) scale(0.100000,-0.100000)"
fill="#000000" stroke="none">
<path d="M1136 2948 c-30 -62 -67 -103 -133 -154 -27 -20 -51 -41 -55 -47 -4
-6 -7 -367 -7 -802 l-1 -791 36 -19 c48 -26 145 -131 168 -183 l19 -42 1723 0
1723 0 24 53 c26 57 107 143 161 172 l35 19 1 593 c0 346 -4 593 -9 593 -42 0
-41 20 -41 -585 l0 -573 -32 -21 c-46 -28 -100 -86 -142 -153 l-37 -58 -1686
3 -1687 2 -32 55 c-31 53 -101 127 -152 160 -23 15 -23 15 -23 265 0 214 -2
247 -13 232 -10 -12 -16 -15 -21 -7 -4 6 2 22 14 34 21 22 21 28 21 528 l0
506 34 21 c46 29 120 110 145 159 11 22 25 43 29 46 12 7 43 7 1820 6 l1553 0
17 -32 c30 -54 96 -132 145 -168 l47 -35 0 -188 0 -188 23 3 c22 3 22 4 25
203 l2 200 -34 19 c-55 29 -129 107 -161 168 l-30 58 -1721 0 -1722 0 -26 -52z
m2559 32 c3 -5 1 -10 -4 -10 -6 0 -11 5 -11 10 0 6 2 10 4 10 3 0 8 -4 11 -10z"/>
<path d="M1981 2769 c-93 -28 -130 -95 -123 -226 2 -31 4 -33 41 -33 l38 0 5
79 c7 120 41 165 114 147 14 -4 26 -16 30 -32 4 -16 12 -24 23 -22 21 4 28 73
8 81 -32 12 -104 15 -136 6z"/>
<path d="M1510 1955 c0 -535 3 -815 10 -815 7 0 10 279 10 815 -1 514 -4 815
-10 815 -6 0 -10 -301 -10 -815z"/>
<path d="M2180 2766 c0 -3 15 -13 33 -23 24 -13 28 -18 15 -21 -16 -3 -18 -19
-18 -149 0 -122 -3 -149 -17 -165 -15 -17 -13 -18 60 -18 72 0 98 10 62 24
-14 5 -16 29 -13 170 l3 164 -30 6 c-16 3 -45 8 -62 12 -18 3 -33 4 -33 0z"/>
<path d="M2398 2763 c6 -2 18 -2 25 0 6 3 1 5 -13 5 -14 0 -19 -2 -12 -5z"/>
<path d="M2634 2751 c14 -15 16 -37 14 -130 l-3 -111 -57 102 c-81 147 -76
141 -131 133 l-47 -7 0 -161 c0 -140 -2 -161 -17 -173 -16 -12 -10 -13 41 -14
56 0 58 1 43 18 -18 20 -20 35 -18 167 l1 100 19 -35 c51 -97 108 -185 119
-186 25 -3 27 -5 14 -13 -25 -15 7 -51 45 -51 l33 0 0 169 c0 137 3 172 15
185 23 23 19 26 -37 26 -49 0 -50 -1 -34 -19z"/>
<path d="M2780 2764 c0 -3 7 -12 15 -20 12 -12 15 -46 15 -170 0 -128 -3 -156
-15 -160 -41 -16 -2 -24 120 -24 125 0 135 1 135 19 0 10 3 33 6 50 6 27 4 31
-15 31 -14 0 -25 -11 -35 -35 -14 -33 -17 -35 -65 -35 l-51 0 0 75 0 75 30 0
c19 0 34 -7 42 -20 24 -37 38 -24 38 35 0 43 -3 55 -15 55 -9 0 -18 -6 -21
-14 -7 -19 -32 -28 -55 -21 -16 5 -19 17 -19 71 l0 64 43 0 c48 0 59 -6 76
-37 21 -40 41 -29 41 22 l0 45 -135 0 c-74 0 -135 -3 -135 -6z"/>
<path d="M3110 2761 c0 -5 7 -11 15 -15 23 -9 22 -312 -2 -338 -15 -17 -14
-18 35 -18 56 0 60 3 37 26 -12 12 -15 43 -15 146 0 72 2 129 5 127 2 -3 20
-50 40 -105 56 -156 55 -154 80 -152 19 2 29 21 70 130 27 70 50 127 51 125 2
-2 4 -57 5 -122 1 -77 5 -123 13 -128 8 -6 8 -10 0 -13 -6 -3 -20 -11 -30 -19
-17 -13 -12 -14 54 -15 l73 0 -18 25 c-10 14 -30 28 -46 32 -36 8 -45 23 -13
23 14 0 26 -4 26 -10 0 -5 5 -10 10 -10 6 0 10 55 10 145 0 120 3 147 15 151
36 14 10 25 -51 22 l-66 -3 -37 -102 c-20 -56 -39 -104 -42 -108 -4 -3 -24 44
-44 104 -29 88 -40 111 -55 111 -10 0 -22 -4 -25 -10 -3 -5 -15 -10 -26 -10
-11 0 -17 5 -14 10 4 6 -7 10 -24 10 -17 0 -31 -4 -31 -9z"/>
<path d="M3723 2753 c-36 -108 -119 -314 -134 -335 l-20 -28 62 0 c62 0 62 0
44 20 -15 17 -17 27 -9 58 l9 37 61 3 c57 3 62 1 68 -20 9 -35 7 -78 -4 -78
-5 0 -10 -4 -10 -10 0 -6 32 -10 75 -10 69 0 95 10 61 23 -14 6 -41 82 -92
260 l-27 97 -39 0 c-28 0 -40 -5 -45 -17z m41 -119 c7 -27 16 -59 20 -71 7
-22 5 -23 -43 -23 -28 0 -51 2 -51 3 0 4 34 104 45 136 8 20 15 9 29 -45z"/>
<path d="M4240 2576 c0 -119 4 -197 10 -201 7 -4 10 63 10 194 0 127 -4 201
-10 201 -6 0 -10 -71 -10 -194z"/>
<path d="M1149 2661 c-78 -79 15 -206 115 -158 38 18 54 66 36 112 -14 36 -8
40 32 26 44 -15 78 -49 78 -78 0 -13 5 -23 11 -23 15 0 4 56 -16 87 -26 39
-87 63 -160 63 -60 0 -69 -3 -96 -29z m131 -43 c17 -32 8 -54 -32 -77 -44 -25
-108 6 -108 54 0 34 37 56 85 53 31 -2 43 -9 55 -30z"/>
<path d="M4351 2664 c-25 -32 -28 -92 -6 -133 24 -48 77 -55 121 -18 l27 23
23 -23 c62 -62 144 15 120 112 -15 61 -85 86 -127 44 l-21 -21 -22 21 c-33 31
-89 28 -115 -5z m111 -31 c39 -36 6 -103 -51 -103 -45 0 -68 30 -61 80 4 39
78 54 112 23z m143 1 c25 -25 16 -75 -17 -94 -25 -13 -31 -13 -55 0 -54 30
-34 110 28 110 15 0 35 -7 44 -16z"/>
<path d="M1912 2489 c-44 -9 -48 -14 -28 -43 27 -42 73 -60 153 -59 39 0 76 4
82 7 6 4 11 25 11 47 0 49 -27 54 -52 9 -30 -52 -100 -38 -125 26 -7 17 -13
19 -41 13z"/>
<path d="M1127 2348 l2 -93 38 -2 c37 -3 38 -3 16 13 -20 14 -23 26 -23 76 0
71 -9 71 151 -8 60 -30 111 -54 114 -54 3 0 5 8 5 18 0 12 -39 33 -145 80 -79
34 -148 62 -152 62 -5 0 -8 -42 -6 -92z"/>
<path d="M4375 2416 c-16 -12 -13 -14 36 -20 66 -9 79 -19 79 -62 0 -62 -78
-87 -125 -39 -29 28 -32 51 -8 77 14 16 14 18 1 18 -19 0 -28 -21 -28 -64 0
-80 101 -123 163 -68 19 17 23 82 7 113 -9 15 -7 19 7 19 20 0 97 -44 99 -57
5 -38 18 -72 26 -67 30 19 -35 117 -96 145 -48 22 -134 25 -161 5z"/>
<path d="M4246 2342 c-4 -13 -5 -26 -2 -29 10 -11 18 4 14 29 l-4 23 -8 -23z"/>
<path d="M4246 2254 c-11 -27 -7 -542 4 -549 7 -4 10 92 10 279 0 157 -2 286
-4 286 -2 0 -7 -7 -10 -16z"/>
<path d="M2723 2203 c-12 -2 -34 -18 -48 -34 -20 -24 -25 -41 -25 -83 0 -64
18 -92 69 -107 54 -16 91 -6 91 26 0 30 -11 32 -28 5 -16 -26 -47 -25 -66 2
-29 41 -17 147 18 170 17 12 25 10 43 -12 23 -27 33 -25 33 5 0 18 -5 25 -19
25 -11 0 -25 2 -33 4 -7 2 -23 1 -35 -1z"/>
<path d="M2300 2170 c0 -34 15 -40 25 -10 3 11 15 20 26 20 17 0 19 -8 19 -93
0 -59 -4 -97 -12 -105 -9 -9 -2 -12 35 -12 26 0 47 5 47 10 0 6 -4 10 -10 10
-6 0 -10 38 -10 95 0 88 1 95 20 95 10 0 24 -9 30 -21 14 -24 22 -19 26 16 l3
25 -100 0 -99 0 0 -30z"/>
<path d="M2528 2193 c8 -3 12 -32 12 -94 0 -59 4 -89 11 -89 6 0 1 -9 -12 -20
-23 -18 -23 -19 -4 -20 58 0 60 4 57 106 -2 63 1 100 9 110 10 12 4 14 -37 13
-27 0 -43 -3 -36 -6z"/>
<path d="M2848 2191 c11 -6 13 -34 10 -115 l-3 -106 38 0 c20 0 37 5 37 10 0
6 -4 10 -10 10 -5 0 -10 20 -10 45 0 29 4 45 13 45 14 0 57 -71 57 -94 0 -12
11 -16 40 -16 39 0 52 12 29 26 -6 3 -26 31 -45 61 l-35 54 45 44 45 45 -47 0
c-32 0 -42 -3 -33 -9 12 -8 10 -16 -12 -50 -35 -53 -57 -54 -57 -3 0 21 5 43
12 50 9 9 1 12 -37 12 -32 0 -45 -3 -37 -9z"/>
<path d="M3088 2188 c15 -15 17 -184 2 -193 -29 -18 -3 -26 73 -23 81 3 82 3
85 31 4 32 -17 37 -36 7 -7 -11 -23 -20 -37 -20 -23 0 -25 4 -25 45 0 38 3 45
19 45 11 0 22 -6 24 -12 9 -22 25 10 19 38 -4 23 -6 24 -22 9 -30 -27 -41 -18
-38 28 3 38 5 42 28 39 14 -2 30 -10 36 -18 16 -20 21 -18 26 11 l5 25 -85 0
c-67 0 -83 -3 -74 -12z"/>
<path d="M3275 2175 c2 -34 11 -41 25 -16 6 12 20 21 30 21 19 0 20 -7 20 -95
0 -57 -4 -95 -10 -95 -5 0 -10 -4 -10 -10 0 -5 21 -10 47 -10 37 0 44 3 35 12
-8 8 -12 46 -12 105 0 85 2 93 19 93 11 0 23 -9 26 -20 8 -26 25 -16 25 16 0
24 -1 24 -98 24 l-98 0 1 -25z"/>
<path d="M1303 2170 c-36 -15 -56 -55 -50 -101 l5 -40 -46 3 -47 3 -3 61 c-3
54 -6 63 -25 68 -25 6 -32 2 -21 -16 4 -7 8 -41 8 -76 l1 -64 75 0 75 0 0 46
c0 56 21 80 71 80 26 0 42 -7 55 -23 25 -31 24 -47 -6 -77 -31 -31 -32 -44 -1
-44 29 0 36 16 36 82 0 41 -5 54 -29 79 -30 29 -58 35 -98 19z"/>
<path d="M4336 2154 c-12 -30 -6 -105 10 -129 32 -49 122 -40 139 15 6 19 8
18 32 -10 49 -58 123 -31 123 46 0 49 -19 94 -41 94 -25 0 -24 -22 1 -38 22
-14 27 -61 8 -80 -30 -30 -108 6 -108 51 0 32 -18 26 -24 -8 -9 -45 -44 -69
-86 -60 -20 4 -34 15 -40 31 -11 29 2 69 24 77 24 10 19 27 -8 27 -13 0 -27
-7 -30 -16z"/>
<path d="M1295 1895 c-14 -13 -25 -29 -25 -35 0 -6 -12 2 -26 19 -28 34 -82
43 -103 18 -18 -23 -23 -71 -11 -115 9 -35 15 -42 35 -42 32 0 32 13 0 34 -44
29 -26 96 25 96 32 0 70 -33 70 -61 0 -33 18 -29 24 6 12 60 76 85 116 45 27
-27 25 -56 -5 -84 -31 -29 -32 -46 -1 -46 27 0 36 21 36 87 0 55 -7 71 -41 88
-40 21 -66 19 -94 -10z"/>
<path d="M4336 1904 c-3 -9 -6 -38 -6 -65 0 -40 5 -55 25 -75 15 -15 33 -23
43 -20 9 2 34 7 54 11 45 7 61 31 56 83 l-3 37 48 3 47 3 0 -53 c0 -52 12 -78
35 -78 6 0 8 27 5 77 l-5 76 -37 0 c-21 -1 -56 -2 -78 -2 l-40 -1 6 -38 c8
-52 -19 -86 -70 -86 -20 0 -43 7 -52 16 -23 23 -21 68 5 89 11 9 21 22 21 28
0 17 -47 13 -54 -5z"/>
<path d="M2091 1730 c-11 -38 -14 -40 -54 -40 l-42 -1 33 -27 33 -27 -15 -42
-15 -43 39 26 40 27 37 -29 c30 -23 35 -24 29 -8 -4 10 -10 33 -13 49 -4 26 0
33 29 50 l33 20 -44 5 c-39 4 -46 9 -55 37 -16 47 -22 47 -35 3z"/>
<path d="M2482 1732 c-12 -41 -14 -42 -55 -42 l-42 -1 33 -27 c31 -26 32 -29
21 -60 -14 -42 -9 -47 24 -22 31 25 36 25 67 0 36 -28 41 -25 24 16 -9 20 -12
40 -7 44 4 3 21 16 37 28 l29 22 -47 0 c-30 0 -46 4 -46 13 -1 6 -7 25 -13 41
l-13 29 -12 -41z"/>
<path d="M2870 1733 c-13 -42 -14 -43 -59 -43 l-46 0 38 -26 c25 -17 37 -31
33 -41 -3 -8 -9 -27 -13 -41 -6 -27 -6 -27 18 -9 41 29 47 30 83 2 l36 -27
-15 42 c-8 23 -15 44 -15 46 0 2 17 15 37 29 l38 25 -48 0 c-31 0 -47 4 -47
13 -1 6 -7 26 -14 42 l-13 30 -13 -42z"/>
<path d="M3260 1733 c-13 -42 -14 -43 -58 -43 -42 0 -44 -1 -26 -14 10 -8 21
-10 22 -5 5 12 42 12 42 -1 0 -5 -8 -10 -17 -10 -13 0 -14 -3 -6 -11 8 -8 8
-22 -3 -51 -8 -22 -14 -42 -14 -45 0 -2 16 8 35 23 36 27 43 27 84 -3 24 -18
24 -18 18 9 -4 14 -9 32 -12 40 -4 9 9 25 32 41 l38 27 -47 0 c-46 0 -47 1
-61 43 l-14 42 -13 -42z"/>
<path d="M3648 1731 c-16 -39 -18 -41 -60 -42 l-43 0 25 -17 c13 -9 33 -25 43
-35 9 -9 38 -20 62 -24 38 -5 44 -3 40 9 -4 10 5 24 27 39 l33 24 -45 5 c-42
5 -45 7 -55 44 l-11 38 -16 -41z"/>
<path d="M4247 1683 c-2 -5 -5 -128 -6 -275 -2 -187 1 -268 8 -268 8 0 11 85
11 275 0 151 -2 275 -4 275 -3 0 -7 -3 -9 -7z"/>
<path d="M1277 1660 c-25 -20 -28 -28 -25 -64 3 -23 8 -50 13 -60 7 -17 5 -18
-19 -12 -56 14 -74 33 -104 106 -8 21 -11 23 -17 8 -10 -25 24 -87 67 -122 60
-47 174 -50 218 -6 29 29 27 100 -3 135 -32 38 -93 44 -130 15z m118 -45 c30
-29 31 -49 5 -75 -28 -28 -105 -28 -120 -1 -40 76 54 138 115 76z"/>
<path d="M4578 1643 c19 -13 22 -25 22 -74 0 -33 -2 -59 -5 -59 -3 0 -62 27
-132 60 -69 33 -128 60 -130 60 -1 0 -3 -8 -3 -17 0 -13 38 -34 148 -81 81
-34 150 -62 153 -62 3 0 7 43 8 95 l2 95 -43 -1 c-42 0 -42 0 -20 -16z"/>
<path d="M3596 1575 c-4 -13 -2 -14 14 -5 23 13 26 20 6 20 -8 0 -16 -7 -20
-15z"/>
<path d="M3690 1584 c0 -2 9 -8 20 -14 11 -6 20 -7 20 -2 0 6 -9 12 -20 15
-11 3 -20 3 -20 1z"/>
<path d="M1172 1413 c-25 -5 -52 -49 -52 -86 0 -90 70 -136 132 -87 25 19 26
19 43 0 12 -13 31 -20 56 -20 51 0 79 35 79 100 0 42 -4 52 -31 74 -17 14 -36
26 -44 26 -18 0 -67 -26 -76 -41 -6 -10 -12 -8 -26 8 -20 24 -47 32 -81 26z
m66 -49 c26 -18 30 -65 6 -88 -8 -9 -28 -16 -44 -16 -36 0 -60 24 -60 60 0 30
30 60 60 60 9 0 26 -7 38 -16z m155 4 c28 -22 32 -63 8 -87 -41 -41 -121 -17
-121 36 0 50 71 82 113 51z"/>
<path d="M4494 1408 c-23 -11 -44 -48 -44 -76 0 -9 7 -30 15 -46 l15 -29 -32
7 c-46 9 -81 37 -93 74 -10 33 -25 43 -25 17 0 -32 29 -83 60 -105 26 -18 50
-24 111 -28 76 -4 79 -4 109 26 79 80 -15 209 -116 160z m104 -44 c28 -19 29
-64 3 -88 -13 -12 -32 -16 -62 -14 -37 2 -46 8 -57 31 -7 15 -10 37 -7 48 12
37 83 51 123 23z"/>
<path d="M2027 1292 c-15 -42 -36 -94 -46 -114 l-19 -38 26 0 c24 0 27 4 27
33 0 30 2 32 41 35 38 3 42 1 48 -24 5 -18 3 -30 -6 -35 -8 -6 3 -9 30 -9 l43
0 -16 30 c-8 16 -15 36 -15 44 0 8 -6 35 -14 58 -8 24 -17 55 -20 71 -5 19
-13 27 -29 27 -18 0 -26 -13 -50 -78z m53 -26 c8 -35 7 -36 -22 -36 -27 0 -30
3 -23 23 3 12 9 32 12 45 7 30 22 16 33 -32z"/>
<path d="M2208 1359 c16 -17 17 -190 0 -207 -17 -17 108 -16 142 1 37 18 63
78 55 126 -10 63 -41 83 -132 89 -64 3 -76 2 -65 -9z m112 -19 c43 -23 46
-158 4 -174 -54 -21 -61 -6 -56 112 4 76 11 84 52 62z"/>
<path d="M2448 1358 c17 -17 17 -205 0 -211 -7 -3 2 -6 20 -6 24 -1 31 2 25
12 -8 13 -11 169 -3 160 3 -2 16 -37 30 -76 15 -42 31 -72 39 -72 8 0 24 30
39 70 38 106 43 104 33 -13 l-7 -82 40 0 c31 0 37 3 28 12 -15 15 -17 184 -2
193 21 13 8 25 -28 25 -38 0 -38 0 -61 -65 -13 -36 -26 -63 -30 -60 -4 2 -16
31 -26 65 l-18 60 -46 0 c-35 0 -42 -3 -33 -12z"/>
<path d="M2740 1360 c0 -4 3 -10 8 -14 11 -12 1 -190 -12 -198 -6 -4 9 -8 34
-8 l45 0 -7 92 c-3 51 -7 99 -7 106 -1 6 -8 12 -16 12 -8 0 -15 4 -15 8 0 5
-7 9 -15 9 -8 0 -15 -3 -15 -7z"/>
<path d="M2798 1363 c7 -3 16 -2 19 1 4 3 -2 6 -13 5 -11 0 -14 -3 -6 -6z"/>
<path d="M2850 1355 c0 -8 5 -15 11 -15 8 0 8 -5 -1 -15 -7 -8 -8 -15 -4 -15
5 0 15 9 22 20 7 11 21 20 32 20 18 0 20 -7 20 -89 0 -68 -4 -93 -16 -105 -14
-15 -11 -16 38 -16 29 0 48 4 41 8 -10 6 -18 117 -14 190 1 19 29 14 41 -8 16
-29 30 -24 30 10 l0 30 -100 0 c-82 0 -100 -3 -100 -15z"/>
<path d="M3189 1341 c-26 -26 -29 -36 -29 -91 0 -51 4 -65 25 -85 35 -36 112
-35 146 1 20 22 24 36 24 91 0 59 -3 67 -28 89 -41 35 -99 33 -138 -5z m109
-36 c8 -24 11 -58 8 -87 -5 -33 -3 -48 6 -51 7 -3 4 -5 -7 -5 -11 1 -28 -3
-37 -6 -11 -5 -24 0 -37 13 -27 27 -30 124 -5 159 25 35 56 25 72 -23z"/>
<path d="M3404 1353 c8 -29 11 -188 2 -201 -5 -8 2 -12 26 -11 18 0 27 3 21 6
-9 3 -13 29 -13 81 l1 77 47 -82 c37 -64 52 -82 70 -83 21 0 22 3 22 103 0 67
4 107 12 115 9 9 5 12 -20 12 -28 0 -32 -3 -28 -22 10 -47 16 -142 10 -135 -4
4 -26 40 -48 79 -37 65 -45 73 -75 76 -28 3 -32 1 -27 -15z"/>
<path d="M3630 1360 c0 -5 5 -10 10 -10 15 0 13 -183 -2 -198 -9 -9 7 -12 75
-12 84 0 87 1 87 23 0 36 -11 39 -35 12 -16 -16 -30 -22 -44 -18 -17 4 -21 13
-21 49 0 37 3 44 19 44 10 0 22 -7 25 -16 10 -26 23 -7 18 26 -3 23 -8 28 -15
21 -6 -6 -19 -11 -29 -11 -14 0 -18 8 -18 40 0 38 2 40 30 40 19 0 33 -7 40
-20 14 -26 30 -17 30 16 0 24 -2 24 -85 24 -50 0 -85 -4 -85 -10z"/>
</g>
</svg>
